<mxfile host="app.diagrams.net" agent="Mozilla/5.0 (Macintosh; Intel Mac OS X 10_15_7) AppleWebKit/537.36 (KHTML, like Gecko) Chrome/129.0.0.0 Safari/537.36" version="24.8.4">
  <diagram name="Page-1" id="802sqqGO35NnLvLabq3D">
    <mxGraphModel grid="1" page="1" gridSize="10" guides="1" tooltips="1" connect="1" arrows="1" fold="1" pageScale="1" pageWidth="570" pageHeight="560" math="0" shadow="0">
      <root>
        <mxCell id="0" />
        <mxCell id="1" parent="0" />
        <mxCell id="NWqYuL7iUljdfoK01-JL-3" value="" style="rounded=0;whiteSpace=wrap;html=1;" vertex="1" parent="1">
          <mxGeometry x="428" y="8.5" width="133" height="71.5" as="geometry" />
        </mxCell>
        <mxCell id="o3wgpyr-beOxrrR1u4XE-35" style="edgeStyle=orthogonalEdgeStyle;rounded=0;orthogonalLoop=1;jettySize=auto;html=1;" edge="1" parent="1" source="o3wgpyr-beOxrrR1u4XE-3" target="o3wgpyr-beOxrrR1u4XE-30">
          <mxGeometry relative="1" as="geometry" />
        </mxCell>
        <mxCell id="o3wgpyr-beOxrrR1u4XE-3" value="Revision" style="shape=cylinder3;whiteSpace=wrap;html=1;boundedLbl=1;backgroundOutline=1;size=15;" vertex="1" parent="1">
          <mxGeometry x="23" y="143" width="63" height="60" as="geometry" />
        </mxCell>
        <mxCell id="NWqYuL7iUljdfoK01-JL-4" style="edgeStyle=orthogonalEdgeStyle;rounded=0;orthogonalLoop=1;jettySize=auto;html=1;entryX=0;entryY=0.5;entryDx=0;entryDy=0;" edge="1" parent="1" source="o3wgpyr-beOxrrR1u4XE-7" target="NWqYuL7iUljdfoK01-JL-3">
          <mxGeometry relative="1" as="geometry">
            <Array as="points">
              <mxPoint x="408" y="131" />
              <mxPoint x="408" y="44" />
            </Array>
          </mxGeometry>
        </mxCell>
        <mxCell id="NWqYuL7iUljdfoK01-JL-9" style="edgeStyle=orthogonalEdgeStyle;rounded=0;orthogonalLoop=1;jettySize=auto;html=1;entryX=0;entryY=0.5;entryDx=0;entryDy=0;" edge="1" parent="1" source="o3wgpyr-beOxrrR1u4XE-7" target="NWqYuL7iUljdfoK01-JL-5">
          <mxGeometry relative="1" as="geometry">
            <Array as="points">
              <mxPoint x="408" y="131" />
              <mxPoint x="408" y="139" />
            </Array>
          </mxGeometry>
        </mxCell>
        <mxCell id="o3wgpyr-beOxrrR1u4XE-7" value="" style="rounded=1;whiteSpace=wrap;html=1;" vertex="1" parent="1">
          <mxGeometry x="221" y="1" width="165" height="260" as="geometry" />
        </mxCell>
        <mxCell id="NWqYuL7iUljdfoK01-JL-28" style="edgeStyle=orthogonalEdgeStyle;rounded=0;orthogonalLoop=1;jettySize=auto;html=1;entryX=0;entryY=0.5;entryDx=0;entryDy=0;" edge="1" parent="1" source="o3wgpyr-beOxrrR1u4XE-8" target="NWqYuL7iUljdfoK01-JL-21">
          <mxGeometry relative="1" as="geometry">
            <Array as="points">
              <mxPoint x="408" y="410" />
              <mxPoint x="408" y="280" />
            </Array>
          </mxGeometry>
        </mxCell>
        <mxCell id="NWqYuL7iUljdfoK01-JL-29" style="edgeStyle=orthogonalEdgeStyle;rounded=0;orthogonalLoop=1;jettySize=auto;html=1;entryX=0;entryY=0.5;entryDx=0;entryDy=0;" edge="1" parent="1" source="o3wgpyr-beOxrrR1u4XE-8" target="NWqYuL7iUljdfoK01-JL-25">
          <mxGeometry relative="1" as="geometry">
            <Array as="points">
              <mxPoint x="408" y="410" />
              <mxPoint x="408" y="455" />
            </Array>
          </mxGeometry>
        </mxCell>
        <mxCell id="o3wgpyr-beOxrrR1u4XE-8" value="LLM&lt;div&gt;GPT-4o&lt;/div&gt;" style="sketch=0;points=[[0,0,0],[0.25,0,0],[0.5,0,0],[0.75,0,0],[1,0,0],[0,1,0],[0.25,1,0],[0.5,1,0],[0.75,1,0],[1,1,0],[0,0.25,0],[0,0.5,0],[0,0.75,0],[1,0.25,0],[1,0.5,0],[1,0.75,0]];outlineConnect=0;fontColor=#232F3E;fillColor=#01A88D;strokeColor=#ffffff;dashed=0;verticalLabelPosition=bottom;verticalAlign=top;align=center;html=1;fontSize=12;fontStyle=0;aspect=fixed;shape=mxgraph.aws4.resourceIcon;resIcon=mxgraph.aws4.augmented_ai;" vertex="1" parent="1">
          <mxGeometry x="313" y="371" width="78" height="78" as="geometry" />
        </mxCell>
        <mxCell id="o3wgpyr-beOxrrR1u4XE-11" style="edgeStyle=orthogonalEdgeStyle;rounded=0;orthogonalLoop=1;jettySize=auto;html=1;entryX=0;entryY=0.5;entryDx=0;entryDy=0;exitX=1;exitY=0.5;exitDx=0;exitDy=0;" edge="1" parent="1" source="o3wgpyr-beOxrrR1u4XE-9" target="o3wgpyr-beOxrrR1u4XE-10">
          <mxGeometry relative="1" as="geometry">
            <Array as="points">
              <mxPoint x="156" y="511" />
              <mxPoint x="156" y="410" />
            </Array>
          </mxGeometry>
        </mxCell>
        <mxCell id="o3wgpyr-beOxrrR1u4XE-9" value="&lt;h1 style=&quot;margin-top: 0px; font-size: 10px;&quot;&gt;Browser Documentation&lt;/h1&gt;&lt;p style=&quot;font-size: 10px;&quot;&gt;Lorem ipsum dolor sit amet, consectetur adipisicing elit, sed do eiusmod tempor incididunt ut labore et dolore magna aliqua.&lt;/p&gt;" style="text;html=1;whiteSpace=wrap;overflow=hidden;rounded=0;fontSize=10;strokeColor=default;dashed=1;" vertex="1" parent="1">
          <mxGeometry x="2" y="466" width="130" height="90" as="geometry" />
        </mxCell>
        <mxCell id="o3wgpyr-beOxrrR1u4XE-10" value="Knowledge" style="shape=image;html=1;verticalAlign=top;verticalLabelPosition=bottom;labelBackgroundColor=#ffffff;imageAspect=0;aspect=fixed;image=https://cdn4.iconfinder.com/data/icons/success-filloutline/64/idea-read-knowledge-light_bulb-thinking-128.png" vertex="1" parent="1">
          <mxGeometry x="216" y="376" width="68" height="68" as="geometry" />
        </mxCell>
        <mxCell id="o3wgpyr-beOxrrR1u4XE-12" style="edgeStyle=orthogonalEdgeStyle;rounded=0;orthogonalLoop=1;jettySize=auto;html=1;entryX=0;entryY=0.5;entryDx=0;entryDy=0;entryPerimeter=0;" edge="1" parent="1" source="o3wgpyr-beOxrrR1u4XE-10" target="o3wgpyr-beOxrrR1u4XE-8">
          <mxGeometry relative="1" as="geometry" />
        </mxCell>
        <mxCell id="o3wgpyr-beOxrrR1u4XE-13" value="Prompt" style="sketch=0;pointerEvents=1;shadow=0;dashed=0;html=1;strokeColor=none;fillColor=#505050;labelPosition=center;verticalLabelPosition=bottom;verticalAlign=top;outlineConnect=0;align=center;shape=mxgraph.office.concepts.script;" vertex="1" parent="1">
          <mxGeometry x="221" y="281" width="53" height="49" as="geometry" />
        </mxCell>
        <mxCell id="o3wgpyr-beOxrrR1u4XE-36" style="edgeStyle=orthogonalEdgeStyle;rounded=0;orthogonalLoop=1;jettySize=auto;html=1;" edge="1" parent="1" source="o3wgpyr-beOxrrR1u4XE-15" target="o3wgpyr-beOxrrR1u4XE-30">
          <mxGeometry relative="1" as="geometry">
            <Array as="points">
              <mxPoint x="58" y="235" />
            </Array>
          </mxGeometry>
        </mxCell>
        <mxCell id="o3wgpyr-beOxrrR1u4XE-15" value="Bugs" style="shape=cylinder3;whiteSpace=wrap;html=1;boundedLbl=1;backgroundOutline=1;size=15;" vertex="1" parent="1">
          <mxGeometry x="19.5" y="251" width="70" height="60" as="geometry" />
        </mxCell>
        <mxCell id="o3wgpyr-beOxrrR1u4XE-17" style="edgeStyle=orthogonalEdgeStyle;rounded=0;orthogonalLoop=1;jettySize=auto;html=1;entryX=0.5;entryY=0;entryDx=0;entryDy=0;entryPerimeter=0;" edge="1" parent="1" source="o3wgpyr-beOxrrR1u4XE-13" target="o3wgpyr-beOxrrR1u4XE-8">
          <mxGeometry relative="1" as="geometry" />
        </mxCell>
        <mxCell id="o3wgpyr-beOxrrR1u4XE-21" value="" style="rounded=0;whiteSpace=wrap;html=1;" vertex="1" parent="1">
          <mxGeometry x="2" y="1" width="105" height="100" as="geometry" />
        </mxCell>
        <mxCell id="o3wgpyr-beOxrrR1u4XE-22" value="Chrome&amp;nbsp;&lt;div&gt;Commits&lt;/div&gt;" style="sketch=0;outlineConnect=0;fontColor=#232F3E;gradientColor=none;fillColor=#232F3D;strokeColor=none;dashed=0;verticalLabelPosition=bottom;verticalAlign=top;align=center;html=1;fontSize=12;fontStyle=0;aspect=fixed;pointerEvents=1;shape=mxgraph.aws4.git_repository;" vertex="1" parent="1">
          <mxGeometry x="12" y="12" width="35" height="45.5" as="geometry" />
        </mxCell>
        <mxCell id="o3wgpyr-beOxrrR1u4XE-23" value="Firefox&amp;nbsp;&lt;div&gt;Commits&lt;/div&gt;" style="sketch=0;outlineConnect=0;fontColor=#232F3E;gradientColor=none;fillColor=#232F3D;strokeColor=none;dashed=0;verticalLabelPosition=bottom;verticalAlign=top;align=center;html=1;fontSize=12;fontStyle=0;aspect=fixed;pointerEvents=1;shape=mxgraph.aws4.git_repository;" vertex="1" parent="1">
          <mxGeometry x="61" y="9" width="37.31" height="48.5" as="geometry" />
        </mxCell>
        <mxCell id="o3wgpyr-beOxrrR1u4XE-24" style="edgeStyle=orthogonalEdgeStyle;rounded=0;orthogonalLoop=1;jettySize=auto;html=1;entryX=0.5;entryY=0;entryDx=0;entryDy=0;entryPerimeter=0;" edge="1" parent="1" source="o3wgpyr-beOxrrR1u4XE-21" target="o3wgpyr-beOxrrR1u4XE-3">
          <mxGeometry relative="1" as="geometry" />
        </mxCell>
        <mxCell id="o3wgpyr-beOxrrR1u4XE-25" value="" style="rounded=0;whiteSpace=wrap;html=1;" vertex="1" parent="1">
          <mxGeometry x="2" y="352" width="105" height="100" as="geometry" />
        </mxCell>
        <mxCell id="o3wgpyr-beOxrrR1u4XE-26" value="Chrome&lt;div&gt;Bugs&lt;/div&gt;" style="sketch=0;outlineConnect=0;fontColor=#232F3E;gradientColor=none;fillColor=#232F3D;strokeColor=none;dashed=0;verticalLabelPosition=bottom;verticalAlign=top;align=center;html=1;fontSize=12;fontStyle=0;aspect=fixed;pointerEvents=1;shape=mxgraph.aws4.git_repository;" vertex="1" parent="1">
          <mxGeometry x="11" y="362" width="37.69" height="49" as="geometry" />
        </mxCell>
        <mxCell id="o3wgpyr-beOxrrR1u4XE-27" value="Firefox&lt;div&gt;Bugs&lt;/div&gt;" style="sketch=0;outlineConnect=0;fontColor=#232F3E;gradientColor=none;fillColor=#232F3D;strokeColor=none;dashed=0;verticalLabelPosition=bottom;verticalAlign=top;align=center;html=1;fontSize=12;fontStyle=0;aspect=fixed;pointerEvents=1;shape=mxgraph.aws4.git_repository;" vertex="1" parent="1">
          <mxGeometry x="61" y="362" width="37.69" height="49" as="geometry" />
        </mxCell>
        <mxCell id="o3wgpyr-beOxrrR1u4XE-29" style="edgeStyle=orthogonalEdgeStyle;rounded=0;orthogonalLoop=1;jettySize=auto;html=1;entryX=0.5;entryY=1;entryDx=0;entryDy=0;entryPerimeter=0;" edge="1" parent="1" source="o3wgpyr-beOxrrR1u4XE-25" target="o3wgpyr-beOxrrR1u4XE-15">
          <mxGeometry relative="1" as="geometry" />
        </mxCell>
        <mxCell id="o3wgpyr-beOxrrR1u4XE-37" style="edgeStyle=orthogonalEdgeStyle;rounded=0;orthogonalLoop=1;jettySize=auto;html=1;entryX=0;entryY=0.5;entryDx=0;entryDy=0;" edge="1" parent="1" source="o3wgpyr-beOxrrR1u4XE-30" target="o3wgpyr-beOxrrR1u4XE-10">
          <mxGeometry relative="1" as="geometry">
            <Array as="points">
              <mxPoint x="196" y="235" />
              <mxPoint x="196" y="410" />
            </Array>
          </mxGeometry>
        </mxCell>
        <mxCell id="o3wgpyr-beOxrrR1u4XE-30" value="Bug Description&lt;div&gt;Bugfix Commits&lt;/div&gt;&lt;div&gt;Messages&lt;/div&gt;" style="sketch=0;outlineConnect=0;fontColor=#232F3E;gradientColor=none;fillColor=#232F3D;strokeColor=none;dashed=0;verticalLabelPosition=bottom;verticalAlign=top;align=center;html=1;fontSize=12;fontStyle=0;aspect=fixed;pointerEvents=1;shape=mxgraph.aws4.document;" vertex="1" parent="1">
          <mxGeometry x="131" y="211" width="35.08" height="48" as="geometry" />
        </mxCell>
        <mxCell id="o3wgpyr-beOxrrR1u4XE-45" value="User Interface" style="rounded=0;whiteSpace=wrap;html=1;" vertex="1" parent="1">
          <mxGeometry x="435" y="12.5" width="120" height="15.5" as="geometry" />
        </mxCell>
        <mxCell id="o3wgpyr-beOxrrR1u4XE-46" value="&lt;div&gt;Network &amp;amp; Security&lt;/div&gt;" style="rounded=0;whiteSpace=wrap;html=1;" vertex="1" parent="1">
          <mxGeometry x="435" y="31.5" width="120" height="16.5" as="geometry" />
        </mxCell>
        <mxCell id="o3wgpyr-beOxrrR1u4XE-47" value="Rendering" style="rounded=0;whiteSpace=wrap;html=1;" vertex="1" parent="1">
          <mxGeometry x="434" y="52.5" width="120" height="17.5" as="geometry" />
        </mxCell>
        <mxCell id="NWqYuL7iUljdfoK01-JL-18" style="edgeStyle=orthogonalEdgeStyle;rounded=0;orthogonalLoop=1;jettySize=auto;html=1;entryX=1;entryY=0.5;entryDx=0;entryDy=0;exitX=1;exitY=0.5;exitDx=0;exitDy=0;" edge="1" parent="1" source="o3wgpyr-beOxrrR1u4XE-50" target="77xE9gMN34iMxN2iWLI2-3">
          <mxGeometry relative="1" as="geometry">
            <Array as="points">
              <mxPoint x="376" y="138" />
              <mxPoint x="376" y="203" />
            </Array>
          </mxGeometry>
        </mxCell>
        <mxCell id="o3wgpyr-beOxrrR1u4XE-50" value="TF-IDF" style="rounded=0;whiteSpace=wrap;html=1;" vertex="1" parent="1">
          <mxGeometry x="252" y="123" width="108" height="29" as="geometry" />
        </mxCell>
        <mxCell id="NWqYuL7iUljdfoK01-JL-5" value="" style="rounded=0;whiteSpace=wrap;html=1;" vertex="1" parent="1">
          <mxGeometry x="428.5" y="91" width="131.5" height="95" as="geometry" />
        </mxCell>
        <mxCell id="NWqYuL7iUljdfoK01-JL-6" value="Performance bugs" style="rounded=0;whiteSpace=wrap;html=1;" vertex="1" parent="1">
          <mxGeometry x="434.25" y="95" width="120" height="21" as="geometry" />
        </mxCell>
        <mxCell id="NWqYuL7iUljdfoK01-JL-17" style="edgeStyle=orthogonalEdgeStyle;rounded=0;orthogonalLoop=1;jettySize=auto;html=1;entryX=0;entryY=0.5;entryDx=0;entryDy=0;exitX=0;exitY=0.5;exitDx=0;exitDy=0;" edge="1" parent="1" source="NWqYuL7iUljdfoK01-JL-11" target="o3wgpyr-beOxrrR1u4XE-50">
          <mxGeometry relative="1" as="geometry">
            <Array as="points">
              <mxPoint x="236" y="100" />
              <mxPoint x="236" y="138" />
            </Array>
          </mxGeometry>
        </mxCell>
        <mxCell id="NWqYuL7iUljdfoK01-JL-11" value="Lemmatization" style="rounded=0;whiteSpace=wrap;html=1;" vertex="1" parent="1">
          <mxGeometry x="252" y="85" width="108" height="29" as="geometry" />
        </mxCell>
        <mxCell id="NWqYuL7iUljdfoK01-JL-19" style="edgeStyle=orthogonalEdgeStyle;rounded=0;orthogonalLoop=1;jettySize=auto;html=1;exitX=1;exitY=0.5;exitDx=0;exitDy=0;entryX=1;entryY=0.5;entryDx=0;entryDy=0;" edge="1" parent="1" source="NWqYuL7iUljdfoK01-JL-12" target="NWqYuL7iUljdfoK01-JL-11">
          <mxGeometry relative="1" as="geometry">
            <Array as="points">
              <mxPoint x="376" y="61" />
              <mxPoint x="376" y="100" />
            </Array>
          </mxGeometry>
        </mxCell>
        <mxCell id="NWqYuL7iUljdfoK01-JL-12" value="Tokens" style="rounded=0;whiteSpace=wrap;html=1;" vertex="1" parent="1">
          <mxGeometry x="252" y="46.5" width="108" height="29" as="geometry" />
        </mxCell>
        <mxCell id="NWqYuL7iUljdfoK01-JL-13" value="" style="group" connectable="0" vertex="1" parent="1">
          <mxGeometry x="250" y="165" width="110" height="91" as="geometry" />
        </mxCell>
        <mxCell id="77xE9gMN34iMxN2iWLI2-3" value="" style="shape=image;verticalLabelPosition=bottom;labelBackgroundColor=default;verticalAlign=top;aspect=fixed;imageAspect=0;image=data:image/png,iVBORw0KGgoAAAANSUhEUgAAAnAAAAG7CAYAAABD1KhJAAAAAXNSR0IArs4c6QAAAARnQU1BAACxjwv8YQUAAAAJcEhZcwAADsMAAA7DAcdvqGQAAL+OSURBVHhe7b0JvG9T/f+/7uy6uCSKKLPKcA3R/YZkTkmmUCol+RpLVOYvIi6+kfry9+OrNIgiQxFfKmRIynCNIUPmoczuPPw/z3X2OnedddZae6392Z/pnPeT89ifvfbea9z383593msaMb+BEgRBEARBEHqGkcVREARBEARB6BFEwAmCIAiCIPQYIuAEQRAEQRB6DBFwgiAIgiAIPYYIOEEQBEEQhB5DBJwgCIIgCEKPIQJOEARBEAShxxABJwiCIAiC0GOIgBMEQRAEQegxRMAJgiAIgiD0GCLgBEEQBEEQegwRcIIgDGuOO+449fnPf744ay233nqrWnXVVdUiiyyirrjiiiI0nXbmVRCE7kYEnCAISdxyyy3qIx/5iJo4caJ6xzveoTbaaCP117/+tbhajQsuuEBtvPHGxVkfX/rSl9TRRx9dnNUDcY4dO1YLJ/K+1VZbqb///e/F1XRWWGEF9fvf/744y+e//uu/1IEHHqjeeusttcMOOxShA/nFL36hPvShD+m8LrPMMmrbbbfVdV8XTz75pBoxYoSaM2dOESIIQi8iAk4QhFLeeOMNtd1226mDDjpIvfLKK+rZZ59Vxx57rBo3blxxR/cQEibf/va3tXB65pln1NJLL61FXbv55z//qdZYY43ibDCnn366Ovjgg9WRRx6pXnzxRfXUU0+p/fffX1155ZXFHZ1HhJ8gdAci4ARBKOWRRx7Rx89+9rNq1KhRavz48WrrrbdWa6+9tg6H8847T33gAx9Qiy66qPrgBz+o7rrrLh0+ZcoUtfLKK/eHX3755Tr8oYceUvvuu6/685//rL1Niy++uDr33HPVhRdeqE499VQd9qlPfUrf+9xzz6mdd95ZLbXUUmrFFVdUP/jBD3Q40K24yy676K7FxRZbTHv1Yiy88MLqc5/7nLr//vuLkIH85je/0SKL/HzsYx/T+YQvfOELWlCRJ/JGHn1QD6ussor29G2//fY670AdPP744/3Pz5w5U4cbXn/9de2hO+uss9ROO+2kJkyYoMaMGaPvP+2004q7FnDjjTeq5ZZbrjjrw/YQ3nHHHdqTR528613vUocccogO/+hHP6qPlI98UP/wox/9SLffEkssobbZZhstNg147MgX3b/8zZ8/X33jG9/QQhiPLO9BqD4FQWgRjX+IgiAIURriYn5DkMz/4he/OP93v/vd/FdeeaW40sevfvWr+csuu+z8hmiYP2/evPmPPvro/CeffLL/2rPPPjt/7ty58y+++OL5DQE1vyFq9LUf//jH8zfaaCP92bDnnnvOP+qoo4qz+fq59dZbb/7xxx8/vyF65j/22GPzGyJu/rXXXquvH3vssfNHjx49vyEM9b3Tpk3T4TZ2nG+++eb8hhCdv/HGG+tznt9jjz3054cffljn77rrrps/a9as+aeccsr8hvDS6cL73ve++ddff73+7OMPf/jD/CWXXHL+nXfeOX/GjBnzDzzwwPmbbLJJcTX+/DXXXDO/IY7nz549uwgZjJ3XG264Yf573vMe/dlgxz958uT5P/3pT/VnytwQavrzE088MZ+vfjsd6o5yPvjggzr8hBNOmP8f//EfxdWGWmvcv+WWW87/97//reuXuqdNXn31Vd3ePGfaVBCE9iAeOEEQSsGLwzgsPDFf/epXtScM7xLdfPC///u/uotygw020PfggWqICX3tM5/5jGqIOzVy5Ei12267aQ8O3qFUGGf38ssva+8U49hWWmklnYeGGCzuUKohNvSYMtLAO+jjv//7v7XXibzRlerz1P3yl79Un/zkJ/UYObxf3/zmN9X06dPVbbfdVtwRB+/hXnvtpRriRncvn3zyydrDxbizMhriSL3zne9UDTFahDQH+f/HP/6h/vWvf2lPW0PQFVcG8//+3/9TRxxxhPbAkT5duPfcc88ALxzX8SpSv8TdEIV6HGHDjujnGK8nCEL7EAEnCEISGGlED2PI6C6ja5DxWvD000/rLkIfP/3pT9U666yjxRN/PIuoSAURQVrmef5OOumkfvEIyy+/fPEpDGLstddeUy+88ILuJvXll3SM8AQEIXEz5i8F93mE05JLLpn0PPdRL3WNMTv//PN11/f73/9+Layvuuqq4spgqOOvf/3r/fWLUEOY2fm263jzzTfXkzEOOOAA3T27zz776HGSgiC0DxFwgiBkgyhgEoAZ94Rxf+yxx/RnG4QB3rL/+Z//0R4mBNSaa66pxQHgrXNxw4ibcW88a/7w/vzud78r7vDHUwU8hbbXiXwiTt/znvfo87J03OfffvttXW7zfAy8iAsttFDy8iKMkZs2bVpxptTcuXO1p9KAp/Oiiy5SL730kjrssMP0OEHy4ysDdYwXzq5jPI/MOja4z33ta19Td955p3rggQe0UPSN0xMEoXWIgBMEoRS6yr73ve9p7xsgahAHpltu77331l2UGHRED113CBkjGOhyhR//+McDBrvjvSHOWbNmFSF9YQz2N2y44Ya6C/eUU07RogKhQhzNLmHiY9ddd1VXX321+sMf/qBmz56ty0xXqBEybt5cmBxBGel+ZJICXZEf/vCH9eSCMpgM8J3vfEd7tRBxiDPycM011+juaZfVVltNzZgxQ+eX+0488cQBEyN+/vOfa0GHFxGvGjABhbYgzC4Hk0no7kWMARMqLrnkEv3ZB3X/l7/8RaeLkER4ErcgCO1DBJwgCKUwgxSDjRjBYCPc8KQhcIBxbkcddZQWMNzLeDSWG2HW6aGHHqq9S4if++67T68fZ6Arjhmf7373u/X4L/jKV76iHnzwQS06iAdh8Nvf/laLIjxx3IdgRGTUzeqrr66FD8ulkA7p8sfYO2AcGEKJvCFYXbbYYgt1wgkn6BmzjAnDK2mP1SuDmaIsJUIaCC08Y3gvfWvGIfjOPvtsXRd4+GgXe1bqtddeq+uWbly6R8kHQotZuLQV7UA5br/9drXjjjtqL93uu++uxTJti3AMQXcpnlVmrNJlTPcvXdSCILSPEY1fy319GYIgCIIgCEJPIB44QRAEQRCEHkMEnCAIgiAIQo8hAk4QBEEQBKHHEAEnCIIgCILQYwyLSQzMJkuZxi8IgiAIgtBpWIbJXtfRx7AQcGzo/Le//a04EwRBEARB6F5SdIt0oQqCIAiCIPQYIuAEQRAEQRB6DBFwgiAIgiAIPYaMgRMEQRAEoRLsh8t+xuzLK+TD9nZsgTdmzJgipI8U3SICThAEQRCESjzxxBN6/2P2wx0xYkQRKqSA/Pr3v/+t3nzzTb3Ps41MYhAEQRAEoWXgeRPxVg3qjLqr6r0UAScIgiAIQmVEvFWnmboTAScIgiAIgtBjiIATBEEQBKFneeGFF9Tuu++uVl55ZfXBD35QfeITn1CPPPKIevLJJ9Waa65Z3JXHBRdcoJ577rnirBqMcfva176mVlllFbX22muru+66q7hSDyLgBEEQBEHoSRBJO+64o/rYxz6mHnvsMfXggw+qk046Sb344ovFHdWoIuDmzJlTfOrjmmuuUY8++qj+O/fcc9V+++1XXKkHEXCCIAiCILSFK+5+Vm005Y9qxcOv1kfOm+GGG27QS3Dsu+++RYhS66yzjtpkk02Ksz4QZAceeGBxptR2222nbrzxRjV37lz1pS99SXvq1lprLXXGGWeoSy+9VM8A3WOPPXRc06dPV3feeafadNNN1frrr6+22WYb9fzzz+t4EI5HHnmkvnbmmWfqMMOVV16pvvjFL+pxbpMnT1avvfZa/3N1IAJOEARBEISWg1g74rL71LOvTVesX8aR82ZE3P33369FVVXuuece9eyzz+p47rvvPvXlL39Z7bLLLnoZjwsvvFBfHz16tDrooIO0sEPI7bXXXuqoo44qYlBamN10003q0EMPLUL6IN7ll1++OFN6vTfC6kIEnCAIgiAILee0/3tYTZ89tzjrg3PCO8VKK62kHn/8cS3Qrr32WrXYYosVVxbw8MMPa4G31VZbaY/ciSeeqBcvNuy2227Fp4H4ltmtc8auCDhBEASh5dTddSb0Hs+9Nr34NJBQeAprrLGG9oqVgRdt3rx5xVnf+nWwxBJLqKlTp+qu0LPOOkvtvffeOtwGIUY6eOP4w1N33XXXFVeVmjBhQvFpIHjcnn766eJMadG37LLLFmfNIwJOEARBaCmt6DoTeo9lFx9ffBpIKDyFzTffXM2cOVOdd955RYhSf/3rX3WXps0KK6ygxRciDlF1xx136PB//etfOmznnXdWJ5xwQv9MUXaXYIcEWH311dXLL7+s/vznP+tztg974IEH9OcY22+/vfrpT3+qBeDtt9+uJk6cqJZZZpniavOIgBMEQRBaSjd2nQnt51vbrK7GjxlVnPXBOeFVoUvy8ssvV9dff71eRgRP2XHHHTfI07XRRhvp7aqYqPDNb35TrbfeejqcMWl43+gaZTLDySefrMP5zMQIwpnowPi3ww47TE2aNEmH3Xbbbfq+GCxnQhcty4h89atfVWeffXZxpR5kL1RBEAShpdBt6jM0jAZ6Yson+06EnuShhx5SH/jAB4qzcvC6ItzpNsXzhnjbYd33FFeHJ746lL1QBUEQhI7Tiq4zoTdBrN16+OZauHMc7uKtGUTACYIgCC2lFV1ngjDcEQEnCIIgtBS8LCfvtJZ6z+LjdbcpR87F+yII1ZExcIIgCD2CjB8Suo3cMXDCYGQMnCAIwhBGluIQBMFGBJwgCEIPIEtxCIJgIwJOEAShB2jFKvaCMBR44YUX1O67767XgfvgBz+o11975JFH1JNPPqk3qa8Cm98/99xzxVk1/v73v6v/+I//UOPGjVP//d//XYTWhwg4QRCEHkCW4hCEwTCMf8cdd9SL8T722GPqwQcfVCeddJJ68cUXizuqUUXAzZkzp/jUxzve8Q71gx/8QC8c3ApEwAmCIPQAshSHMCS491dKnbGmUsct3nfkvAluuOEGNWbMGL1rgoGdEjbZZJPirA8E2YEHHlicKbXddtupG2+8Ue+ywK4LeOrYpeGMM87Quy4wgWCPPfbQcU2fPl3vt7rpppuq9ddfX22zzTbq+eef1/EgHI888kh97cwzz9RhhqWXXlptsMEGOn+tQAScIAhCDyBLcQg9D2Ltt19T6nU2eJ/fd+S8CRF3//33a1FVFfZHZTst4mGT+i9/+ctql1120bNAL7zwQn2djfAPOuggLewQcnvttZc66qijihiUeu211/Teq4ceemgR0h5EwAmCIPQIiDVZxV7oWf7wHaVmO2M2OSe8Q7BX6eOPP64F2rXXXqsWW2yx4soCHn74YS3wttpqK+2RO/HEE9UzzzxTXFVqt912Kz61FxFwgiAIXQ5LhWw05Y96T1GOsnSI0JO8vkD0DCAUngCb1+MVKwMv2rx584ozpWbMmKGPSyyxhJo6daruCj3rrLPU3nvvrcNtGGdHOnjj+MNTd9111xVXlZowYULxqb2IgBMEQehiZP03Ycgwcbnig0MoPIHNN99czZw5U5133nlFiFJ//etfdZemzQorrKDFFyLu6aefVnfccYcO/9e//qXDdt55Z3XCCSeou+66S4cvuuii6s0339SfV199dfXyyy+rP//5z/p89uzZ6oEHHtCfO4kIOEEQhC5G1n8Thgxb/JdSY5xZ05wTXpERI0aoyy+/XF1//fV6GRE8Zccdd5xadtllizv62GijjdSKK66oJyowK3S99dbT4Yx/w/tG1yiTGU4++WQdzmcmRhDORAfGvx122GFq0qRJOuy2227T98VgeZPllltOnX766brblc9vvPFGcbV5ZCstQRCELoZuU9+XNBMZGAsnCJ0keystJiww5o1uUzxviLe1dy0uDk9kKy1BEIQhSGz9NxkbJ/QciLVv3K/Uca/1HYe5eGsGEXCCIAhdTGj9t83ev5SMjROEYYwIOEEQhC4mtP7bDX9/OXlsnHjqBGHo0VUCjjVYmO2xyiqrqClTphShg2GGyahRo/SgQkEQhKGOb/231L1REWvd4KkTESkI9dI1Ao5ZHgcccIC65ppr9F5mF110kT66cB8zQdjKQhAEYbiSujdqN8xi7RYRKQhDia4RcKzJgueNVZHHjh2rdt99d3XllVcWVxfwwx/+UK/Xwh5jgiAIw5XUvVFTPXWtRJZCEYT66RoBx1osyy+/fHGm9HophNlwznov9qa1Ic4991w9DZc/FuATBEEYSoTGxrnba5V56trRtdkNIlIYurDeGk4f1oH74Ac/qD7xiU+oRx55RD355JN6k/oqsPn9c889V5xVg71U1157bf33kY98RO/4UCddI+B8y9GxQJ/NwQcfrE455RQ9/q2MffbZR6+hwt9SSy1VhAqCIPQGKcLKNzbOJeapI852dG2mdvcKQi5ohx133FEvxvvYY4/poVcnnXSSevHFF4s7qlFFwM2ZM6f41AcLB7MjxL333quOOeYYrUvqpGsEHB43trcwsFGsu5IyYgyVzZYYTGDYf//91RVXXFFcFQRBGBrUKaxinrp2dW2mdvcKQ5+rH79abX3p1mrtn6ytj5w3ww033KDGjBkzoGeOnRI22WST4qwPBNmBBx5YnCm13XbbqRtvvFGPq2fXBTx17NJwxhlnaH2B3thjjz10XNOnT9f7rW666aZq/fXX12Pwn3/+eR0PwvHII4/U184880wdZsDrxl6rMHny5AEb4NdB1wi4DTbYQD366KPqiSeeULNmzVIXX3yx2n777YurfXANlyh/u+yyizr77LPVDjvsUFwVBGG4gaBpdfdfJ6hbWIU8de3q2oyJSGH4gFg77rbj1PNvP9/4YTJfHzlvRsTdf//9WlRVhf1RGZ5FPGxS/+Uvf1nrC4Zf0QXKdTbCP+igg7SwQ8jttdde6qijjipiUOq1117TnrZDDz20CBnM+eefr7bddtvirB66RsBRQf/zP/+jlS1bSuy66656T7NzzjlH/wmCINjU5aXqRhEYE1Z15redXZshESkMH86860w1Y+6M4qwPzgnvFEycfPzxx7VAYymzxRZbrLiygIcfflgLvK222kp75NjX1Pam7bbbbsUnP3gJEXAMAauTrhFwYAYe0o9t1C1uUd+kBdyhqGRBEIYndXipED91dVXWSUhALb7wmFrzK12bQjt54e0Xik8DCYWngKMHr1gZOInmzZtXnDWE44w+IUkXJ5ML6Ao966yz1N57763DbRhnRzp44/jDU3fdddcVV5WaMGFC8WkwjH8jTlbVWHLJJYvQeugqAScIgpBKHd1/dXdV1kVIWDHXy5ffQ381tZKIk65NoZ28e8K7i08DCYWnsPnmm6uZM2eq8847rwjpW+yfLk0bxs4jvhBxjLdn6TL417/+pcNYnuyEE05Qd911lw5fdNFF1Ztvvqk/s8EAq1n8+c9/1uezZ89WDzzwgP4c46mnnlI77bST+tnPfqZWW221IrQ+RMAJgtCT1NH9V4cIbAUhYfX69Nl9NzjMbSg71xPH53W/c51a4fCr9d86x1/nFXnStSm0i6+v93W10KiFirM+OCe8KqxWwfJi119/vV5GBE/ZcccdN2gS5EYbbaRnhTJR4Zvf/KZab731dDjj3/C+0TXKZIaTTz5Zh/OZ3j/CmejA+Dc2EZg0aZIOu+222/R9Mb7zne+of//733rCJc8wrq5ORsz3rd8xxKDSmFEiCMLQATGCaLE9UnipcjxIjCGjG9IFwYSY6TZC+TWYfFM337p0qpo9d+DX+5iRI9Rpn5kkIk2ojYceekiPW0+FCQuMeaPbFM8b4u2TK32yuDo88dVhim4RD5wgCD1JyEtFOAImZaB/r40B8+XXxngO6QJ2xRvMnjc/e4xgSj3m0Io4hd4BsXbdLtepe/e8Vx+Hu3hrBhFwgiD0LIg1t/sPQZA60D8mArsRk99RziLnhpGNcMoZ6wJO7R7OqcdUWhGnIAxXRMAJgjCkyJ2Y4BOB3Qz5+96uk7yeODMWjtmqIVLHCObWYwqtiFPoPMNgJFbLaKbuRMAJgjCk6NaJCXUS88QhiLAJY0YNvsYYuFD3MF4wu2sT75iPnHpsRZxCd7HQQgvpgfoi4vKhzqg76rAKMolBEIQhRUgomAH+QwmEke8LHOl2xm7rqON/+4B6dVrfzNXFx49Rx22/htfDaLo2be8YcfjiTq3HVsQ5VKGu8EIiZPGQIrK73RNsYEkNFrU166oJeSDe2EqU7cBsUnSLCDhBEIYUPuGQOzu1XTRruOsSq6F4XMGVU4+tiHMo0kvvq9A+ZBaqIAjDDowexg8Rg1jg2K3iDcONyEHQcOSc8FR8s1I5D3WThgh1YZKvqvXYijiHIjIuUKiKeOAEQRA6QF3esxwvXujeVnQ7tyLOoUisG5yJNcLwRDxwgiAIXUrIQ+WGI7oQQ6F10xBgCKKyWbQ853r8vnXJVL1bA58RDDZVPHk2dXkHhzqhWcGhcEEwiIATBEHoACmG2ye6crtZDb6uOhb2NZMciN+IuCpdm67QBLsrm0kUC40Zqb7xy3u8QrTbcctXV/5F6ApVEQEnCILQAVIMd53jo0IePxtEnOnizBVvPqEJxMWM2Jlz5mmx2KwQ7QSh8tWRf+rZFrpVxLMwPJExcIIgCB0CAWCPSdvs/UupG/7+cv85QsFHlfFReI1C8dnUGbcRg2XXu51ez7/Qe8gYOEEQhC4GLwsCAMGE5+3Xdz6rhYLx8oSoMj7K5/HzUSXusvF8Zde7nV7PvzA0EQEnCILQJHjS8NI0Mz7K113qo+r4KLerjjFp7m4Nbtyp5QqJPhNedr3b6fX8C0MTEXCCIAxJ6hBVKRCvOz7qW5dOVescf11W2inenGbHR9kev3uO3VqdtsukfkHnxu0rV2jcl8+7Z4tBuoZ9hMK7jbLyCUInkDFwgiAMOYz4sD1aGNxWDA5HoMW6OyEl7ZR4EFkIPTw/iIe6y2ITyg958I37os7t8Xx2/nLj6kZi5ROEuknRLSLgBEEYcrRTMOBlS/kSLUvbJzpt8JLZ6diisBXiIlSuKpMc6oxLEIYDMolBEIRhSag7MhTeDKnjoMrSRnAhyBib5uKKNzDLiRjhh2DlHo6hrs4cQuVKLa9NnXEJgtCHCDhBEIYc7RQMeLvc8VE+UtJGxDE27fu7raM9dmZsms97BYhC3+QHI+6awVcuzgnPpc64BEHoQ7pQBUHoGurqCvR1RyIYWjEGDux8L77wGPXWjDl6lwNDs2nHuoRJ0/cljvhjAd1m6tMu18TxY9SIRqSvTZvddFz283W1uSAMJWQMXIEIOEHofuoWXZ0UBqR9/G8f6N+mim7R47Zfo3L6sbqhjD5xt0RDSM6YPa+W+qy7bQx1xdvJtg7RjXkSegcZAycIQs+AsbMNOXBOeBUwlmbJDI7tNp6IJ8Nr02droYJRdyEMD1tsyRHyjqixu1WNyEEYIHpsOOeneV31WXfbGOqIl/qibuseA9gM3ZgnYeghHjhBELqC2GzOJ3tspmKsyxPBhUDBM1NXdyvCwMRpvD0H//Ke4upgcuuz6ixSX77AhIXauyxem3bOOE6lG/Mk9BbigRMEoWfAwPvAmPea5wJx4sN4YjgiXuhitcUbVPFs+byNoxiw5iEUHiPUNqFw8HmhvnXJVL3IsQkLEYvXJVTXofB20I15EoYeIuAEQSgFY1zWzdcseGd80gJDnytoymi2PGXPhwQI4sntMvRRh6GfG+hcCYXHCHXTGo+aD9rMLStidfbcePpl8bpUEZetphvzJAw9RMAJwjAlVcQQ3o7xPHiNQqa9Ts9Fs+VJeT4keFLFEzM+bYg7pa1sYp62XOFK24TG4IWo2mYz5szV3b+p+asiLltNN+ZJGHqIgBOEYQiGMVXE+DwpVbr5UkAY+KjTc9FseVKeDwmeUPlcmPTAXqpHX3GfWvc712lBk9JWNjGxmBIP4aS9QkPs8Xfcbx7QAiR1UogrQmPYUtNkO7WcVcRlq+nGPAlDD5nEIAjDELwbGEgXDI07yBpvje9LAsOUOtA8FYw1RtsWSHgu6jR+OeUhPwgzvEmISATMNxpiqmp9+MpXFV9bGUgnlE8XXzw8z1g1t7tzzMgR6rTPTCpti9DzeAxGjRoxIJx6i+XTzZ+vTUQYCUMNmcQgCIIXn3gDX3g7x/O0w3ORWh4jtqgTBIbxCDFz1EdKffjKV5VYFyUCJyaKbHzx8LxvrBpj2GxPY4jQ8+PHjlITxo4uzvrWqivLp52/UJsQLgjDDRFwgjAMyZmh2O7xPIgcPC6pXXW5+MoD02bNGSAEECG+rlL6LJqpD7d8VUVcTDDGxJ2LL57Y84imsvF4oeffnjVXdw8bWCsPERfDzl+oTVJEpSAMNUTACcIwJGeGos9rVLdXrJUgMGzBAeTf3TSeJT1sbw5CxcfrDQGSWx9uHmzRExKUMcoEY4o3EELxlD1f5gELeSldQoLY4OYvJAwJJw+MGzRj9hi/5+ZLEIYSIuAEYRgS8vqEwl2vUS+JN1+XG0wYt6Arz4CgYAssnvP7KPvETU59hPJgxAXPIgDLPFEGhGeZYET0hPKPl7VMePL8mFGhGAbiesAoF4sTp2ILYjBeYF/+QsISwcgac7Z3D0HOODxTz4Iw1JBJDIIwDDGiwu6OwttRJgx6DbxdCCYXxAFem9CXH2LK7GNqg7Rgg/icOorlAfFnQ7sghsgbYmWz9y+lbvj7y/3nCKvUtPFChSDtsrjIyyG/ukc56wx7oV7MBI5QebnHF5WvHkL43lviXWjMyEbYgq3LbHLiF4RuIUW3iIAThGGKKxZyxEGvEJpxCnh6qixqW9c2VID4aFXdh4SUIUWwx/JuY4uk2DOk2eyPBpZWufD2p5LyBba4FIReQWahCoIQBKOJ0e21blEfiFEEizvGLNTlhlGvIt4QKrmE8gDkAJHFkh8IkzpBFCKQQrhdnz5ieTeQBmkZQs9Qd6arlPo357nvHR7JnJZLKYMg9CIi4ARB6GlMtxpCyAgiM8bMJ2IQD2UCgHFm7nOuUEmlTEgB+cGrZIRnHSCMjGAKgfcVQgLYl3fWgjPj9fBiGiHIM/y9PXPw+DfG0xGOUAW6oav+aDB5ToV066xXQegWpAtVEISeJtRViHBBJGC87a7iWLciIFgQPlBXF7Odh9gXrslz3cTqiHLFxkO69WdErPuMnvTQKJy7Ob9PMOM5mNgQga9Nm51Vt+Tl0F9N9XpP9ZpyjWB7IoPBLo8g9AIyBq5ABJwgDF1CY64QDr6xTyExA0bQ5Bh6n8CJPR9LP5TnZiGPIZFG3mMC2EesDFVIEVi+Mhjs58sEfd3ktr8gpCBj4ARBGPKE9tzEmPrAwGLwbTj/foVuPSMqEAyISI4sXcF6ZG53pIH0EWo+QnluFsqEwEHEkDZHI3gQHj5C4VCneAPTDWugzqg7uw657hNvdOPa4q9Kearia3/O3TYXhFYgAk4YlvgMhNC9hNqLgf++LjPGaSGUbEwcjMMaN3qk7nJzxUwuPlHBFlLkKWTQSWePye8dJOIQkW6e64R0EajupJWQaIyJSbNWW50YgUVd+UQRRx/z5s8f0HZVyuMj9M7Z+NrfFaOC0CpEwAnDjpCB8H1BDzdSjFa78bXXwQ0RtsZ/Xat+fvtTfTc5LLLQ6AFG3Y0DgcU2TgymRzRhcKuUOcWr4zPoJ+6wlk7b5xEzuG2BWG1F2/g8kuSJugqlU2UGbxlGYIVEUUg0usLMV55ccey+Lxx93xHt9PYJgosIOGHYIb+aB2KEAgu/4p0qM1rNYtJLFSK+9gL21QzhLsIbavPjfvNAkqEOkerV8Rn0kEcMSN/NF2LVPmfngTrahnRN96qBNCBUH/a9NsarmYstsELiB9GYIszs8oTEcRmp3xF1efsEoQoi4IRhx1D41YxBzRFBIWyhAMZwG3xGqxns9FIFU5V2cb01oTjwxKUY6hA+b4+PXIPuExAuzPZEgNYB4oay+MSXrz585eb82E+toT2LdGHbYGjsLuvPT35vUGCF6srcF3rOhrCQOE4h9TsiVA+uqBSEViACThh29Pqv5ioiKESKUDBGi/ibFY2+9MoEU5V2cbv4cuMoE42mLvBYso0T68YhKhAprnipYtDL0jf4xv9VhTZwBbzBzQ+CKCSm+DvtM5MGXDu9Ieru/q+t+wUVXcghgRUTRdzXjDBLJfU7gvRTRaUg1I0sIyIMO4wAsoUEBqJXvngRDsZjZoPxwKjlgBgr+wIgXoxnHXUWSg/jh1H24WuvMuy64Hk2qHe7VRFaCD3fXp+mzIgaxAuG2wgI31ZOdl2Qnu+5HEJt7CN3a68QsXehyrsVIqV+6qjDZvC9c+3+juh0HQidRZYREQQPfAnyRYxR6sVfzXyh+wiFx8AwxDCeDwyJK6A4J9wHxsfnrQulF8uHaS+8XC6jHG8XmDyDMcS+jenpgvSJN55nE3mec72coX047bogv6RPmWgTwk35U+F58lHGhLHl94Rw2yi0HAs1bOqzWUx7uPXq1g912A5PWwjzznXqOyK1noThjXjgBKHHCHlnqnhJjKGwxRkGiy8F4sNwY7RyPGe+OI33AkLXSIdnY14H33UIPROqqxCMnfverpN0fL7nuB6agWnqIlb+HAFgl3Xxhft2LfClTLctY898cYfq05dH304KlIklT+jyrIM6392hjNSTkKJbRMAJQo9Rl0AwhIy8TY5BCd1rxBGkiopmygWxbkEfRoTlPgcIKcZ5hcpvrhtS6t2GxYFDY9589RSrT9IN5XHhsaOT85RLzg+BbiG3neqgF+tJqBfpQhWEIQjGAyOMeOILnWMzIofnEGEYBo6+eDBaGH8bzgl3wdD5wHOFoABfehhJW2wA54RXBYObg7k/9FxoLTJ4a0bfpuk+YQR047JUCwKPrljqgnsx1Bw55/kQr0cmLPjqKVafoTYij7Rp7F1ohlC95rZTuzAiOKed6qDX6knoDCLgBKEHSRFddUL8qaKR7r4QMUEWEhWh8BR8wjOELUhDgvWzH14+GB9djywwXAYigHF0PnHFsiDrfuc6LfT4w+tmxEKZ8XbrKVafsbgQKLmLBnM95f5QvZp6TyE1rTqIieBWUkc9CUMfEXCCICSRKhrLBmUgYHzGt1VeB5b5MCzc+Owu8wF0HdqCNCRYGQvGsVlCVUQXqT3hgvNDfnWPricmVoT9f4PrKVafPoFgQKAgMFO9ToSXean4THu7y67keo99aRGn8WyG8liVVvyoSCH0/qXWkzA8kDFwgiDUSmj8jg9EhDFMxjjbHg/7ei6h+HZe/z3qhr+/3O+JQszkxo9YQDy0C4Tn/IYpd71BBiYgnLbLpAHlKKtPrqd4DA2ICIS7S6guzP11tmtZvTfzvvgoK5sgtAoZAycIQtvJ8Zhh1E13FEYX41uX1yHU/XXRX55uSrxBzIPVCqbNnjeoLDYTxg7c+xXK6pMjYankeqMQPgggRKKvHap0Q5Z5vqrGG8LXzpwTLgidRgScIAi1kitubKOMqEjppk0hZOyZTJHSNRjDFkd1QJci3bhVCU1wsOuTdkHc2N3XhPm6lH24wpzniSfmbY15y2LXQqT8OCgTeTnY7SxdmUK3IQJOEIRa8Rm97++2jnchXsjx2OWQEm8zHhsjjmLCy5SdPz6HYHIra7mFiEx+1ZSV1XRjIpps8fq3f77StzaFBYsjl20HZsdXFVLIFc8pPw7qfp9sEdzsjwpBqBMRcIIwDDDeknbM3APX6MHbs+boow1CwRYGdZJi7KFZj80n116m+LQAxqQh2ozBN/URgokL3MMm7y7U0UdWeoers/ohnAkOMWLdybPnDvShzZ03X40dPbJ/yRSOjBu0hYsvvlxINVc8kwfb8+nWiXRvCsMJEXCCMMRwxVqVNcdSyBGFLI/hCgVg6Q2MeCsEpW3sMfShNdya8diQ71/fOTDvpLLbBssPEDypMMvVeOuIh+NuGy6v7nrq9WBXJeHkIVaHse5kH2/Pmtt/jaMbf13dlFXioV4Rw+wBe4ZTV9K9KQwnZBaqIAwhMLKIM9s7gnHz/SPH4MW8QjF86eD98BlQ7i2b7Rh6tk5idUNd4LnJSZ/4Dv3VVK8ICtVtaDcFupfvOXbBLg02iOOUrspYe4biQNSGRJwL97KTBnWUmqcymnkHBWEoI7NQBWEIgFBI9XT5urZC5rkZL0qoS87XJZbSTeY+m1PmVBAebvebqZtcryT3cX9I/ITq9rjt1xg0voxzwsEtN97TVKEUa09fdzLnsYWJXSirqaPU7mkDAlXvtWrB89LdKQjVEQEnCF2MEQoYcaRCmdDIEWXNdB2GRIUvPDVP5r7cMhOeKvYQcXh8EHGu9MoRkT4BaxOqW9I/7TOTdPrIGY6cE078brl/fvtT+rkUYu1J/Ixjc8e1mYWJ7fyEJpuAqSNbDPNcqHuaCR50deJdZJ06O51We1wFYagjXaiC0MUgHHyiCAPo63oK3Y/RtP+h4/1oxoCufMTvvN4nDPljJ3+iOOsjlCcXU6acMhvRY4uplLIhynxffNQTEy/K4g09D1XrNrWefJSl6SuPeSeoV7v72Hevjakjm7L6bAbyg2hE4CNSc7u6hQVIXfYO0oUqCD1OyHsVCvd1bXG+x+T3akONQeXYjHiDUNehL9yXJxeucx/klNnnCeOc8Bghb5UJL4s39DwCtmrdhsrtg9mqOe3pK49pKUQjgg3jDsRDfCGvmq/sZfVZFSMmySP55cjWWXQtC3n46tJud6H3EAEnCF1MrmE0xtc17nSV4b2qay0r4vXhC/flKSZAcsqcK3ANIaGbKiJ9+5LyPIP8AW9aSpeuTarYob5y27OsPlzRS3yUJVZHNmX1WZWQ8GSvVhEeeZT9KBF6DxFwgtDFVDGMGN8y447xqyIyDLn5cvMUEyA5cecKXAPp+caEmXzE4qWuWFbD9jUSC89DVS+Hr9w+ytZ885EiDsmr/S5QF74fA3ZbGUL3QjPvWUh4UrciPPIo+1Ei9B4yBk4QuhyMHsaKL1oMMQa8mc3YiQ9RYf8aRziEjHMIN1+5+YiRGnfVspQ9F7tOvhA7LogWCF1DqJZhl3tkQ1T6uqRT4wITny9PIaq8Cz6qto0Noi+Ud4QiPwCENEJ1mfM+Ce0jRbeIgBOEFmAb4jrFTSuNYrd9kafWYei+2PMpdRB6PjZgH0LXcsVGsxMDfO9KKnW8C3W8Z5SBMW++ehDhkYfvfahLrAv103OTGK699lq1+uqrq1VWWUVNmTKlCF3AhRdeqNZee23995GPfERNnTq1uCII3YP5osR4YXg4ck54syAoXIPMOQvlYjBT0kCQ+CCfxFG1u6tOcuoQ44Mht7tjy54P1YEd7osXEHM+CI9dy6XZuHzvSirUl4E6q/JepNRxGdQ5E3CMODYgPBDULlXzOhygLhFrCF/qk6OIt96mawTc3Llz1QEHHKCuueYa9eCDD6qLLrpIH21WXHFFddNNN6l7771XHXPMMWqfffYprghC9xASWWwn1axxiRm/mMixCQkAvtRDgqcVxIxtqA4JT6Hs+WbEEcIBAWFjBEXsWi6hsW6pY+ByhJILQwNpkxUabYMHrMp70awANTBeMmXLLPIUE+1C+EeJ0Jt0jYC74447tOdtpZVWUmPHjlW77767uvLKK4urfeB1W2KJJfTnyZMnq2eeeUZ/FoRuImQ42ULJNi7funRqtnEpM34pIscnMjCM5MsmVTBRhlxhWmZsU7w3oXQ5Ep8P83wzQivmyYhdy4Vxjj5C4S6hd4UJGyZvIRhYY+rQ916whVhZezdTx27bQpnwKBPtgjDU6BoB9+yzz6rll1++OFNqueWW02Ehzj//fLXtttsWZ4M599xzdR8yfy+/nPaFJwh1kOphYHP343/7QHGWhs8oupR5XnwiwzXShrK4MLQhIeYaYdvQlxnbMu9NKF2zcX8I83yzQov7QoKCz7QTaVF/lMkueyqhui9rE0NIQLE8iMl3TMTFYHKF294uVes41rah9wmarS9B6DW6RsD55lKMKKb4u9xwww1awJ1yyilFyGDoXmUAIH9LLZU/7V4YHmAEYkahCikiy/DqtMEbm8ewjWKIFAFJPLYACcVXFldIiCFMfUbY1G+ZsQ2JD8IhlO6Ff3lqULjBfh7cOvAJiyrvB/eEyp4TX6juU9oXKE9sqRTIeVdDUN9GeLuk1LFLsG1vfyr4PkGz9SUIvUbXCDg8bk8//XRxpnT36LLLLlucLYDxb3vvvbfuXl1yySWLUEHIJ2Zoq8KzxgAZw1nVyxHCGMXv77ZOVOTkUCaYQoSEGMLUZ4SNoQ8Z1Ynjx2hhw7irhcaM1Pty+rw3oXRjc+qJL4eq70dIgHzjV/foySap8ZW1Cc9RV4xTY2szjuscf51a9zvX6c8rHnG13kvVLEXCkfXr7PSoT9dLFtsLNUSoPUwecwRwsG2Lo8F+n6DqOywIvUrXCLgNNthAPfroo+qJJ55Qs2bNUhdffLHafvvti6t9PPXUU2qnnXZSP/vZz9Rqq61WhApCNUKG1jYKOWCcjMEHDKYxICGjWMVYGnzGFw8L+c/1KPrisgVTiFzvRszDNmbkCPX2rDn9AgcROHPOPD2AHcEKRgywRlouxJcj0Ku+HznikvjwVvpETqxNfO8aMM7SeHVD6ZXlf7tJywxqG1Pb5keJi+89sPNIVsoEqyHnnbLruuo7LAi9SletA/e73/1OHXzwwXpG6l577aWOOuoodc455+hr++67r/a8/frXv1bve9/7dNjo0aOT1neTdeAEHxhM38vPlz9dPrlgfI1BtcGQIFi+dclUNXveghQRLKd9ZlJtBsYYTFd0LLHwGHXsp9ZoiSHzpYnxHzd6pBYTLtSFEWM8i5jACGO0pzXEm69L2dSfr2xVsPMQo+r7EXoPUqH+yoRHM2nY+Q+1Hz8EfItFh+735Tf27yFW/740yLOvLVLbstW477KpL0GoSopukYV8hWFLVQMToszgt/pLPmbUU0RBVXzlglRDb4jVH/E2I4psygSYoU4BkktZGqG6SsGOu0oZU9/jZn4guWmwdArdvznvU7vwtXe35E3oXUTAFYiAE3zU/cVbtyDMpcyom3zEDHCqcU4hN65Y/RFHXV9UdnvE8sisR8aQubARP2uTxbDjDW2JVQb5DNVZTKzHcN/vZkRWGXX/e6jz3ayTTv+7F4YmIuAKRMAJIeoWLDmCsCzt3LyVGXWMMuPJWH+OJUwMY0aNUKftMkl/7qQnIVZ/1EMVweJil6esveoyzL50wIx/9HU1G0L1H4ozhq8rvWoZU95N7vENG9htw+WDe/mmxNtttFIEC8OXFN0y6rgGxechC2vCya4NQxO+8L/yk7+pE696UF3yt2fUkhPGqvcvs1hxtRzu/crGK6oVlpygbnvs3+rSO5+pFA9w/3JLjFf3Pfu6emvGHG0E/+tTH/QaIGOAX5k2S5+/2bj/pkde1s8TT+z6319401tmjtwzxzKYNuTn9w+9qN6eNdDoc/v/PfiC+svj/1ZvzpxThPZBXH954t9q301XLkLi4LX66k/uVGf8/hH1wz/8Q7381gy1+fvfVVyNE6u/srKFQDAws3Xm7HmD2oM6NPVrIH7S5504oVG/PsjbwVumT6LyleuET6+pvr/7uurdExeKlovw6x98Ub1vyYV1PAY7Tt4NJhcQA6Jw/NhRakajvCbMTs+OA3z1Sp0xV+GUa/7u/bdQ9u4aeE+vb7xvdtFYGurBZ9/oF63ue50Sr49mvweagfTIqwv1znskCFVI0S3igRN6FmNImvUYheIJDeSugzLPR+g6BpqZmaEyUxa27HK9OmbCBMtYVIElS8rK3kyXYwqUzXhnQt2SeJkWHjs6qc1inhM8la3cRN0uy+KNPFOUKp64OrDzgthlJrDtoXXTLnt3TXy+e0LwLFT1BtbxPVCVTqcvDE1SdEvXLCMiCLlgJOwvTeCc8BxC8bgLhyJ+WGeLL+xmwVj6MOGh6xj5WJkxGMdtv4buFrWhGwthV5WUOr3oLwvWcbRB1GH066g3w6ILjR5URowmXYQYe7qujNEnbcSamwcEng/CKW9I3CEKm8EYfPNumeVSYkvKVHmvU+GdMXU2YdzoAeIN3LRj765dthx4NhZvDPIW+zdhQ/5C70NVqD/EGkKT94OjiDehHYiAE3qWql/4LqH7fQYcAYWBavaLPyYe7GMqdhkwXK4RhpiHp4yUOo0N1DcC+IPHXKMXms01oLYwIBVdlsYHPG4ho+k+w9FuO4QYos+Gc8JDAoR43DRcQeALswkJjjdmzNae0hC573UVQmnY4WXC1y1bCjwbizdGSp6Bdoi9D81gi2COIt6EdiACTuhZqn7hu+TeH/p1n0NMPEDoOoLFh12GZgx9SD7k1lGIabPnaY9TrgH1CQO8inSXhoxmSCiZtuP+kOcktGCtHe4TBAzaZ5JITCSE2kePFWtEH0i6vw2IKyYQmyHUznZ47N0te/fwmroi1TwbizdGSp6h7H0QhF5DBJzQs8S+8K9+/Gq19aVbq7V/srY+ch7CF0/AhvbTjEiCmHiIXaeLsMzIhQxaGcSzx+T3lsZfJ6kGNFTfsXZIeYZ69nlOQt5EO9wnCBCVZV2Qsfbh2YkLjQm2gU80NutFsgUhiymHBJYh9u7GysZ9zHZmLKbv2Vi8MXz/fn3vbJV3SBC6GZnEIPQ0GB+MI1/CGA++tMdMvEcdd9txasbcGcVdSi00aiH16VU+rf70zJ/UC2+/oN494d3q6+t9XX1ypQUr0tvx+BYOtcG4YPA7ga/MtpHjOkY9lHdDaMB/WfwhGB9YtZu2bJIEAgOx4mLawZdnzmPP+DDx+J4D+1kET+qXJ4IEkQhl7cO9TKLwtUFZPUBO+/nygpdsQuO9eL3RljntD774EFM+IZaTzzJS4kqpO0HoFlJ0iwg4YciBx+35t58vzsIg6o77yHH9Is4Fo8A+le72TiGD1C5SjBX3sHl67F+3LSqahfTc9eVyKKtT4g8JA/BdYxZxzur9vjRs3GdDgsCHKzRjz8UEBZvUh3iy0ZaxevKVuRWixpSx7P3MyWcddCJNQaiKzEIVhiV42FLAQ3fmXWcWZ4PhS/3u/9pae4cwaDndOq3CGCGMLlKJI+eE2+j8lWgpjGtdYLB94o06SwGjShwhKA/17msHnnNFF+csAYOIM+PWOHIeajtfPAZmiLrtjjBBANj45iBwD/fabRfCvhdx5Y5zKxubF6qLUN0isnyEwlOgjhB/sQH9ufmsA/IReocEoRcRD5ww5Ej1wMGIxn/37nlvcdZ9YLgxasabEdvw3fWYxDxEdXseyroTERiMH0MIhbpZMapVPIKxtCmnLRRi5Y7F46tfsNuH9dxYqNfeeYAyMa6QdfBC7UHdzGvUjfFWgespMvH41tkz4IELlSFUt7F3hDL7vGd1kJtPQRhuiAdOGJYwto3u0RQYC9et2B4bjB1Hn3gDrtmeGvB5iICxb0bEcD/PYVDd53Mo8+Yh3sgLa9QhDHxU9QiGnkMY5Xh5YumHPFLUofE2MZ7QFm/AGZ5ACMWBeLO9VT7vFPGwLmForTjKStuFyhAKD70jwDvl8+7WQW4+hT7q+vcqDA2SBdx9992nJk+erJZffnm9vcOrr75aXFFqww03LD4JQjk5M0SrwJg2xraNHBF/vRF5iL1uxWfIY2BwWcbCfKkjBtwuI7qD6RY24s0ViLkG2xgUniWNGEY8IRrcmY6cG+8TmHhTDJVPhHAemklKXn1xE0+oDHjXbHz5Cwk0E54qWkLxUBp6Sn2Ci7LSdky+8dWFXbc29jviIyZ4myHUZqF8Cv4fdK0S2EJvkCzg9ttvP8W2qQi51VZbTW288cbqscce09dmz64280wYfiDWmCFKF+f8xn8cOW+FiDtp45OCnrhlJiwTncDQDYQMeQx3xwXbQ2Q8PAafQMwx2LZBAS0w9Kcw/WVyb7TOcw2VT6jGRAn3+OImHropfdA1yj38MduWRYndONiGyocJTxUtMS/Ua9Nm67KZMW82tB3ePl9dmHYn/67wNO/I4Bj7qPIelhFqM5NPYTDN/nsVhh7JY+DWWWcddc89C/ZRvOGGG7Qn7mc/+5naf//91V133VVc6T5kDFz3EBqfhqC6bpfrirP6QBgyUcG3dEi3g4FFHFSB8VBlYMR9//gxqCnjkEL5M8KpyjWERCxergPCA8OFuEDwIIJc4889CCvb6FE2X5ntuEPLodD1zCbxrhE1cN0dAwcsy8H6Z+QvNd9l+7BWaTtffSAgjXBKqXehczT771XoLWodA4fOe/3114szpTbbbDP161//Wn3hC19Q//znP4tQQYgTmiGaOnM0F8QawpCJChxTxFuru3hDYGAxosY74usOy8WNk3NDapdeCJ+xB8RJzNsU8uiY8LLrRoiQPgaNo/Gi2SBKXC+PzwCCnSbrn/lg/GFIvAHesUUWGl2cLYDZucZLQp4QQz6PqIEwPIHk2cb21pW1na/dyzw4sTYTOk+z/16FoUeygDvssMPUQw89VJz1sfbaa6s//OEPaqeddipCBCFOaNJAt0wmaFcXr4tPlLCGGcteIDxymDC2zwiXCZ1mDDZxuALDgEHxiSfj6SkzRGXXQ0KENftsjGhBnPEs5UrZiiyUfhk8h4jzERKlIZi1ymK+vvqDUNsh+tlr1tfFy9GHyVuszYTO08y/V2FoIsuICG3FCCR3l4RuGY/Wqi5eyh3rysVL4jOwGFE8NUaMxTxABmYq3nPs1qVxwtFX3Kcu+svTehA846o+++HltXgoIxQ3hh/hETP6vrJgiIxYIE/MuLS/mOzroa4kMDs6+NJgogTldHo4B3RxQih/40aPDC6BYvKHYCyr87pwBWrZ7iG0r29iRyvyJrQGt80Rb7F/a0LvIsuICF0HogWxhiBiDbZum0zQii7eFK9eyEMT846EMF2AZXFiDDD4xqhz5JzwMkJxE1OZQfGVxYgzkydbZnCPvQBvzEOGcTNHV8gwNs0Vb8C2UXaeQ/nbbtIyfTc44PE0+W+nl4T0EF6mO5YJDCHxBrRvu/ImtAa3ze33Vhh+iIAT2g5iLXdcWrtoRRcvnjfb4wjuLhAhUWKHu1/eIRFnnonFiVA69FdTBxl8zo0IihGKO5Qnl5Ah8gkvNJdZSw1igsMIy5DA9OEb8+bLn50Hm8UXHtuff44hcdpqyspsdpOoK2+8Q+44O0EQ2ke2gLv11luLTwvwhQlCL/LR5T5afBpIKDyFFK9eFc9N2TOh63S10UXo606DFPFTJb8phNK2wxEcoQVty8Srj5HFIrhlpOQNyJ9PnLaasjKz8kgsbzmCjGu8Q3QX8xZx5FxEnCC0j2wBd9BBBxWfFuALE4Re5E/P/Kn4NJBQeAoh7x3dqWaWK4Y01ztS9kzoellXW4r4qZLfFEJpu+Hs6BATkIhUH769ShGyKeKjLG85AqgV+ES1TWiCBeQKMp+nNNV7KwhCPSRPYvjzn/+sbrvtNvX9739ffeMb3yhClXrjjTfU5ZdfrqZOnVqEdB8yiUFIhaVDEFYuzeyZ6pu4YZM6iaNsIkQqsUkAYxa7W41d6v/UyDGvqYljl1ZHTD6krV3cRkjY4gBR4hOH3ItgwAOGiELAmHsQUL7JBDEQoXilQsTyBqn5rgtf+YGucZ93NVa+UH2Fngm9Q+hjvHuCIDRHrZMYZs2apd566y01Z84c9eabb/b/LbbYYurSSy8t7hKE+kCwtHs9tlaMgUMAIdAmjlnau4qsOx7OhxGBdSxvEvIkjW6It3HLXKZGjn1NW+LXZ7+kjrnl2LbUuyHHs0dYqDsw1N0Zo+yZWN7a7ZEyYtL1mMH3dp00yBPHeax7O1T2UHiZN3I4QBt00uMqCNnLiLBo7/ve977irDcQD1zvYQRLu5cbiaULVT1gxuCOWvlbeiySS5mHr87lTUxebMFBlhZeeUqfeHNo1S4ZPshbyKuWQ1UPHOlVSb/dHqkyj1luPeZ64HzvUKs9jt3EcC+/0HpasozIzJkz9RZaW2+9tdp88837/wShTlJmbrYC4y1zlzmBHA8Y4bb38Ls3Xai/7OfPXry4YyBlHr6UiRCpYGBcTxLiY8SYweINnnvr+WwPA/fyTI53whhF16uUk64BweJ6oWJwr5ncUSX9dnukyjxmtHHIO+nDV1+cE+7D9w4NJ/HSbo+rIPjI9sBNmjRJ7bvvvmr99ddXo0Yt+AfPebciHrjeoxVj0ZohxwPm8+LNnzdGzXi+b8eShZa5TI0YuWBAeYpnsU4PnA9E1mtLHuv1wM2btbh6+7HDkz0MRojleidyvUBlkA8MKnEiMkJfdOzOcOyn1ui/1yUl/aplrkrddQWmvpr1fg4HZAyg0Gpa4oEbPXq02m+//dSGG26oRZv5E4Q6acVYtGbI8YD5vIcItnFL/Z+a88a6WsghivjpNGLOEkndwnTXIvRsOCe8DjDW81/ZVgtNG85nvryN/uzzMGD0XU8b91TxTpR5lWxIhy2jVmikyx8b0BNmg/hAzCBqfMaWnQnYueHu/9pa35uTvgvPt9MjlesxS8HUV8xr52vvMqo846OueOqg3R5XQfCRLeA+9alPqbPPPls9//zz6pVXXun/E4Q6abVgyWWxsYsVnwbiCw+JPdNFiYjDozX3sdPUd9a7KGkcXahr1zzrdtm6Xbtlxg9jfdLWe6rxr+/eLy45IjbJr8GIGZ6vuudmiFSjSNrfunSq3lzewBZX37pkqteoh9Kd1yikLVKqGGW7XhGoCKjUbstmIO5UwWjnsRnhw3NuF/M3Gu2PgA7F63uG89w81BVPXdDdTr3bNCugs7n3V0qdsaZSxy3ed+RcGFZkd6GuuOKKxacFjGj8kn388ceLs+5DulB7E0RI1UkDdbPJxZuo12YO7l5cfNzi6ubdby7O+gh1dzILdf5TR2lBgSjgy74OI+/rsrW7ZY3xy+newyBjJF0QCuTbjc+m6p6boXyyjRZr15l6mzZrzgDx5mLyaMoWK4udn9x6qlKv7abOPIbq0eCLN7Xuy6grnjrw1Slibo/J703aR7gWEGu//ZpSs606GdP4ofGpHyi19q5FgNDLtKQL9Yknnhj0183iTehdEB+M72r1lltl3it4febrxaeB+MJD3kPWVMPY1O2hKZvwUaVLEwGEQbbhnHBffDZV99ykPhAAGGXjVUK8sTcqxtt4XmLiDbgHA4uhhVhZbHzpcw4ICNeDVaVe2wn5bGa7NJcyD6ov3tAzZXG51BUPdeJryxx87c67GdpqrSX84TsDxRtwTngvIt7ESmQLuGnTpqkTTzxRz0SFRx99VF111VX6syD0GsZ7VTa7NKcLFaEZ6+6sm7LxeVWMX0jMEF5mNM29vmchZkS5x4hcBNZFf3l6kLFMwRYTvrIgDLnu5sFO33h2EIO2gDTisC5R0QrIH/lsZrs0l1hXssGNt0q3tI864jF14mvLHLqi3V9/pvjgEArvZow38fWnGyeNluHIuYi4UrIF3Je//GU1duxYvSsDLLfccuroo4/WnwUhlxTvVysp814ZGCbgIxTeLu8hhCZ2LDZmKS1O/CZ8sPHDkNnCCnwew5jRNJ4t7uXIvRg2xBLxpxpRc19IgKRgG1RXGLpevZAh93lbjDisQ1S0Cl++barkkXpzPZkuE509an3P+LyfZdQRT6wtc+iKdp+4XPHBIRTezQw1b2IbyRZwjz32mPr2t7+txozp+4c6fvx4lTmMThA0qd6vVlLmvTLkdKG2m9BG+6++vLIWJz5c45cqrMBnTIEN5o1ni4HtDHB34zvuNw8kGdEyAZJCyKDmGPKYt6UOUdEqYt6gqnm0PZkh3N8z9jM+b2wqdcQTa0vec/vHi++9N3RFu2/xX31j3mw4J7zXGErexDaTLeDwvk2fPr3f84CgGzdunP4sCDmker9a6aVLXa4k9b5OENxof+GHig8D8Rm/HFED40Yv+OpgHTWW42CDeePZAvdnHfExW9QHz9iGMyZADJTjySmf1GnnGNSYIXeJeVtyRUWOSDBUeQZC+WaCSa7wseE5PJmOTuvHt2G+eabZsZ/NxhOqE7yGqT9egHRz2r0lMFGBCQsTl2+cNHLBsVcnMAwlb2KbyRZwxx9/vPr4xz+unn76abXHHnuoLbbYQp166qnFVUFIJ8X71WovXepyJan3QSsFp49QPfp2VsDg+IxfqqjBqGHcbCE2Y/Y8fWzWa2YbzpCxNdgCLdegxkSZS5m3hTRSRIWpt1SRAFWeMYTyzT6poTzmkFOH3UKoTvBF5Px4gdR2bymItW/cr9RxjX/nHHt19ulQ8ia2mWwBt9VWW6nLLrtMXXDBBeqzn/2snub6sY99rLgqCOmkeLVSvXRVKZtwYMTYETcfocaNGqeXDYlNTGi14PQRqkfftl25htcNj3nqUrxmeOtcI2pj4vIZW8QZ+ASabVB5ljhCXquQISfchXjr8LbE6i1ElWcMdeU7RE4dNgNtV8UD6SNUJ6FZzQhmoUGrZ4gOJW9im8leBw6effZZvan9nDlzihClPvpR/zicbkDWgetOjNixBRpeLVsY4cXq1JZaKflzQewh2lwQfHVseeXDl88xI8bpRXinvTqpCOkzsD4jzvMn3366em3WS1r0sfMCi/f67seQ+r4wMIiIvZjRM/EBIiR0L3EhxDDW3IcwJG7EQUyAcP/xv31gkEH2lSM37maJ1Rtl9VHlmXbS6jokfjyOtogNvcPNsPIRv/NOlqG7+bGTP1Gc1QgCiAH6jPGimxBPU7eKFTNDVNabazspuiVbwB122GHql7/8pVpjjTXUyJF9DjzGw/3mN7/Rn7sREXDdC+IBbxrdgHiS6JK0xVEnBJGhStrtEJy+OgM3bPbr65QaWJ/4Y/usMdM2VBOWeFS9MfvlAe2CF8QnvPBmED87M4RgrJqdfiwuvGk5+Iy9TZU4cygTM1XKWmf99ALUIZNcTPf8yIZSneexTnWXnwk3IRhjWStXHaLU337U+GAVrJsFER43vbyHA14yum2FltGShXyvuOIK9fDDD6urr75a/fa3v9V/3SzehO4GURBbbgPhEBt7hgBBaFUdbxZ7PjS2LBQOoe7MUHguRnC5XbTg1iMCAkMXG6fj66Jm39Y5i9yqXp/90oA0SBthghfEhnMjWJiJ6gOj66YfiysXxFNIvAHCqlUgPNjGC7GFWebobutVpax11k+3Y+rQHlvpE29Qd1vybvoIhVcGb5Yr3qCbl8yQGaJdTbaAW2mlldTs2f4xA8LwIiZ+6gIhEhqjFhIzsXzYed74oo3VMbceE3y+ihgrE5zN4hNcnBNehZgYtTFpIMLowsK40ZXH0e7SYiZqqugoiyuHMqOOV6xV4DWa7agNzo+47F7tRaMrFIHJEis5Za2zfrod6setwxAjR4wYII6bpW1CWYu0QBk7JYjKxrfJDNGuJrsLdeedd1ZTp07Vs0/t5UN+8IMfFJ+6D+lCrR8jnmwxUTY+rG4QYogul1AXpy/PPszzVcvIc253Zuj+nHuh7i7aUB36SE0D42q6E1migVl+LC/RqnFSpOXrajRgjFspfGJdcDbkw93Xte766FVC4/1C1N2m9jvbsnZBJIVK2YkuyZTxbTIGrmO0ZAzcT37yk+LTQPbcc8/iU/chAq5+csVTK8gVM6lixX4+JrByxZdLFYFYd7378sA3AqLLJScNDGLqhIKqkEZs3BvQpYtXsJUiKVXAAdVqv7HN1kdbhEcbCI33i4FHsqfGAobGk/FW7HRu+wVR6vg2RFyvTLoYQrREwMGsWbPUI488oj+vvvrq/bsydCsi4Oqnbk9QFXLFTCjPLilCpYr4cqkixupI18UWonNnTVRz3nq/GrP4nXosnIGJDadsekJSGmXCqszwpoqSmNEnjRwx04wQWvc715VusB8DkTlh3OjstH313GpvY6ugLIyBc7tRx4waoWbP9f+bRQx3w2zcZHzeLErxob2U2u704ryNBD2CjTyxtpzQUVJ0S/YYuBtvvFGtuuqq6oADDlD777+/Wm211dSf/hRYCV4YsoTGgYXCWwEeL8SLDeeE+0jNW+h5GwSPLaKAc8JTQDSFvIEIKa4j8BCdHDkHBBRiDZGHWObYjHgDnkUwIrwX//fxauaLO+glSObNWlx74ziOf3335DQQQlUnFBhRYk8I4Jxwl1A8GPbQpA0fOWn6OPZTa2ihURUG7vvS5s+MoePo5sdXz5wT3mvQVqd9ZtKASTCsGXjaLpO0GPeB2O0p8FrR9Wivd4bnrRPiDWR8W8+T7YFbf/311S9+8QvteQM8cSzoe+edd+rzbkQ8cPXTCk9QFWzvkd2N6QsHN88+7tvzvuJTmGY8kL66s2Gx4BlzZnSkbo2YacarUzaeKeaBC3nVjEfN9pK9PXOOd2uuMg+fSyzN1HioNztvm71/Kb2tmF2PSLzUL1uEzMw586Lt0O3rxKXi1p3rgazjnRQ8yPi2rqYlHjhmoBrxBnjgZFbq8AMhUbcnqC6MQMLDhcjiyDmYPIeIXbOJeSBJ3+c9M/i8dwaEGr+p3Oucp3r3crHze/ZjX1a7b/ayFi8IAY65hjLmGRkzcoSaNmtO0KsU8qoZz5TtqXq7EQ/x2WDYEQA5+MQbhMJ9UD+IPbNky4k7rKXrza7HPSa/V+cvBYSpLViAc9u7FqrnWP13G0ac2e1qPJAG6tatSxFvNeDzCDYr3hCFsVmtQq1ke+D22msvvXDvF77wBX1+4YUX6h0ZfvzjH+vzbkQ8cEMTnycLAbTQ6IXUazMHj+FAnJmxZTx79C1HqznzF+wmMnrEaHXixicmidBQ2p9e5dPqyn9cOSgc4QiIsFDXKUzZZIretqtd4wtD5WhGjPs8JjB+zEg1Z978AWOaXE9KyBvGqvi+1fLpZlt47MDxY+B6dHxhpEleQ4sP17USP2mYtBdv5JdivN4QaOQDMZszfg4BY7xrvnruBs+UXV67rn3U4f0UKlL35ATx6NVKSzxw/9//9//pXRhYNuTMM89UH/zgB9U555xTXBWE9uHzZHHuE29Ad6oNP0Rs3PMYIQ/kn575kzdPU+6Y0u8VDEEcxBvz7tVNqA6b8fZhrF2PCbswvGPCuEED0l2vEsbe56XyiTdgeRLb8wWuR+dbl04dtNAu9xx9xX36GCKUpg9EC2LE9SwakWXSRqzRNXpGoz7IL+Pn3PJyjjD1gSAy+Oq5G8SbW/+cm/pwQeT5CIV3JWVep7LrncCILT0LtdFSHDlvJm+IwQETNBpwXmWR4m6ssy6k8izUhx56SG+lRXfq2LFjiyvdiXjghiaps0oNtgeOLkOfmLLvqUJungy216sVXrEQazXyG5qJdl+mt498I/zc8YiG1DFbGHt7S6UYeMnmNb7CjKcHMYhoSCHk1TOQL4RWmSAyosXnCQvlx/Yw8bzrsYJQnJ0UaGXketR63gNnhFDI61R2vVMgiureIquuWa3dWmdtpiUeOLbQWnnlldXXv/51deCBB6pVVllFXXPNNcVVQWgfIY/UxLETteCx4dyeXep64wyh8FSqeMmM986IHY4+717d4g1GzOFLdzCh8BBGdLrjDgk32N4jGzccgcKyGikgwDAZxtOTKt6gzMPGVds7GIJ73O5i41lM8TBRXsSK8SJyzl+3eddSSPKoWd6V60fsr3YZe1txoQ+EqhGxXU+Z16lOr1SdtGKLrLpmtXZrnXUh2QLu0EMPVTfccINeTuSmm27Sn7/xjW8UVwWhfSDIfELtiA8fUSqAQkJrsbGLRScglOHLUwzyhsfPFWecm6U9fNfrYvqLW+s13mw4JzyHlK5Yt3t09GJ3q0VWmaLeWObgQXUdEgKAoMF75oJo8oWHSLk3lg9DTLSkilYfPmHX7ZSW13hXiq67hac/r6aM+V/1pUXuCAtVS/B1XXdamRBqhVAyNFMvdS4hYvKh29T5N4XnjLF1ObSyzoYY2QJu6aWX1l43A3ujEiYI7QZRExJqZQLIJ7SYxDBtzrSoF6kMN08xXK9gnZBnI0Q3uXgTve+rT5QuPfIjg9Z845zwHFI8mrZXaUxDvI1f5jI1YgxdK4PrOiQEeBZBQ7epD7xqtkgE1mjzzVb97IeXH3SvS4rQiokW35g+znvGw5RJaXk93pXRDaF/3IRf+4Uq4sASfLWM1WpG+LjPjl+iuOBghFCdQsmm2XpBVCGubKqIrQH5AP5dFv/Wqs5qbVWdDUGyx8Dtt99+6p///Kfadddd9aDvSy65RI+D22ijjfT1nXbaSR+7CRkDJ/hALNhjtqbPmV46e9XFjQNBZotFBBPixGXkiJHqpI1PGiQs64A8uWPobBCORujGxm/leHxC5QzVXdn9oXyZvURDXaWsn4ZjzczsNFtpgTvOjPKZ8WfEh9mxvwxT6yFWh+CO5zN5yqlfH76xc83GWQfRfCF8BtSyoVH7vnFS/Z4dh5SxWogLBCOeG4y/EScIDltEpo6vMmLFfnbU2EZxGuWZZ43XtOPzPeNed/OYIniq1Iub1qpbK/Vo499matq+vOrziu0ToqzOhgkpuiVbwH35y18uPg0GQfejH/2oOOseRMAJKYQmIOBJ8y3f4RNKtjiClHvqJiSObBCQ/NNHdG70ji+o6+54T1NCILecKXXtCgHf4rg22svW+D+2TEmMZgSR71lwhZ2hiki2Ib06hHfbyRUeuYLPEBIBoxt/018pAixSBEco7+PfodTYCWEhFBJpzQiV3HppVhSFnrfPB1DSPmWE6mwY0RIB14uIgBNSiHnLjNixPWypXqcyL13dhMRRiLoEJeU8+S8nq9dnva7P2VHi8A0P98Ybq7v9V/6xV0iFZiwCXauhNdW4Rtdcu4nlF0L5ShGSPTt7M1dIVPXAhZ4LkiA4qorJEFXLBrnPNpMWhJ4fMapRJZ4fVKnxCkFSdEv2GLgnnnhCHXLIIbqrdPvtt+//E4RexzcuDubNn6cFEYLDHqeVMu4LEDAIulZPSDAgEnNwJxs0w8y5M4tPSndH2/Vl46trzvEG4llCnGAqOXKOqEHQ+GiYTy1aWBPOR+i5VlOWru+68az5ym8TirtTZU0GkYZYw8DTchxjXiA8Lwg8G84Jj4HnJge8PGWE7kl51kcojyl5z62XZtKC0H2ItyrtI9RCtoDbYYcd1AorrKAOOuggPSPV/AnDDwwznhTf4PheBGGFJwovEF15eN5cbLETEkq5AqpuQkI0RkiM5kC92F2oYNeX/b4Qxq4Vpq45Uvd05bpdjpzjkcIb5cOEl11vN2Xp+q5TzlD5bdpWVjxmeF/MoH3OmwWxhncGrxXHWNdYruAzhEQV3Z1VBUeuaCojlEe+d+x69rVBbr00Kz6D9zXSnvS59HwItZLdhfrhD39Y/eUvfynOegPpQq0fjHG7x3a1m7JxWt1cB+QNkYQwmzhuYnB3CoPb7ZuCnQaiNTTujvradfVd1S8f/mUR0oevrmKL/bKobmzcV7eNC/PlxxDKV85ixy0vK0KhmXFTnSSWd6g6vop4mxmbZT/PDNaZbw6cAGGw81pHG5S1ZVm5uH7ZPo0PnrcT0SbdpbXTkjFwv/jFL9Sjjz6qtt56azVu3LgiVKn11luv+NR9DFcB5xrYOsdepY7/smllflpBShlPvP1Edckjl+huVjx2n1ntM+royUfrazY5Za+7nojv8JsPL84GU0V0EqcrXkOwsLIZF+fivi9lY7sQLqHxYeTp5NtPb6T1UsMmLq4WfvtT6qhN9+iIeDOY/FIms/MDZQlNkMgZ2xari1oIjXvqFYPdrNiqG5+IYhbrvDkNXTSvCLDQXq0GdbVBqD58+fKJxOMmFh9cGj8vmpmwIHhpiYA74ogj1M9+9jO9GwNbaQGzT//4xz/qz93IcBRwPgObaqhTBETKLEKbZvLTKUJ5puuPPU994s6+burvo8t9NLjBvVv2VtRTSIiCu5yJ2/bk3S6LeRdicdqQ94VGLxT1AN63Z98YLyN08DbZb1aKZ+n4P/5MXfrPMxoFWuDNaLbeqtCsqOL5rvEi5gza7zaxVDd1lC8kiIPwLwES26AqqUK91wV9j9ESAff+979f3XvvvV2//6nNcBRwVTxkkCogcuOvmp9OYwsadmmYNXeWmj53sIekCr6yt6KeYrNSp2wyZYB4c9vexbwLR9x8RDBO8moLvti9sMvy31YX37DUANFiRFzMW2VA9Bx95+7FosADaef7VZf4Ip7jf/vAoLXs2i7gUg12qgenV6mrfEFBHIB6nvV29WVPUonmq/Ev0QhWGMrt3GWk6JbsSQyTJk1Sr70m7tJuBwPqIxRuQKy4Bpxzwm0wzBhzG84J91E1P50GcYMAOHmTk/UMy7rEG/jKXrWeEF+IP9+EEoRUCr62d+H6lDumBOM0gsmecVuW/q+fOG/QODEj3ug2LBMueLzUaP93UjvfL/LhloNznb9MZsxe0KXGIsAIQ4RdW8FoY6BtODfG3IBnyjbqwDnhQ4G6yocQ8hGaWMFCu7PeKgIsRo4Z3AbNEMqXpvEvERGPcAPEGuJRC7vGUcRbR8kWcC+++KL2wm2zzTayjEgXEzKaZcY0VUBgmPHEYLDtWYS2l86man66hRRxk4uv7Ln1hFBjmyzGuOG5w9PFEU+aEXEhUQ22ME8VO3SH0rWaKuB9Yt9m3qhXi08DSV0Sg/vmz8aLMBhTb4gfxpcxSYBjK8RQKL+p5TDUKQSbAsOcYrDpVvQRCm83eNDwJpbNpA3dV1f5QoJ421P89cwuCXNn9d1nM27RekWTL18uRrCSLp6/lBnEQsvJFnDHH3+8uvzyy9WRRx4py4h0MbkeMkOOgDDeqZT1zarmpxXEvFWha3V7ckJlT6knk8e1frKWFm6+CQK21zTWLna5Qm3vg3FxqQKeMK75lmWBEY2voUXef7iasPIUvcG9IXVJDO6b+fI2gzblV41z6s10bTK+Ds8ex1Z4tEL5TS2HoS4hWAspBjvkwYl6dtqE6f7UXcGFN4nZlAzIt0Wa7z7OCa+rfNRdSBD76jkkEKf7f/BUxs1XiDoFOfWaIqqFKNkCbtNNN9UeuDfffFP/feADH9BhQndhjGaqh8yQIiCqUDU/dYP4OfqWowd4qzgnnD88Vz5PVo64caH+dlt9t6Syx+qJfNjetjJscUY8Puxy+do+BHGTp1QBzzUmS3jjHzFP7186cuxraqFlLtMijrFjjH1LgfvGTP/QgE358cjt8r5v6HTb5dEiH+TbJqccmoYh+/NCX1ePj/ucumXs19T2I28pLrRgjbe6SO1q7QS+7k8EGtgiLdZNWmf5fEItRF3CMUUs2fnSQs5DXYKc9ENiWcgiexLDr371K/Wtb31LfexjH9PbC918883qtNNOU7vssktxR/fRLZMYMMB4RTB+GE4MZszodYpeyWcVEEA+jxVLXSw8ZmGvMEL8UAdlA/xdEGB11Z8Rlznps5XV+NHjdTsyAWPanGlqtrXmFGLKFZJu27824zXvuL/Q9mIhTLzUL8+aZVc4uoyYs4T6znoXDRj7VvZO4k1DkOGlQujYEx9S11arg1g+SjGGzRIS0+aPVYfP3ltdP2rTzsxETYW8I3bw0mDoETcxcdIuogP0CxAs2rsUeEsQNVXL10y9eN4HDWPm6HZNTd+NA/FpPH8+qjzjEis3IlKLNwfaAREpaFoyC5VJDNdff71aeuml9fnLL7+sttxySzV16lR93o10g4DzGWCfAR3qlBniVkO3YxVY6sKX9yNvOdIrQhAnU79Y378JukxTvG6GMSPHaIE1Z/6cIkSp0SNG63AjyGJ7lRp8761L2XscevdDcSJ87aVomv230zP7hgYM2wtqKXX7p2/qXvHWzYTEwgDozmyIjLpFRZkQiokcA/dcc9jgmag+QeWLT59XKFdK3kKUlTsoqguxLGhaMgt13rx5/eINllxySR1WB9dee61affXV1SqrrKKmTJlShC4Ag/S1r31NX1977bXVXXfdVVzpfjD8rsHinPDhgjHECBHfYPtmIA7f2LUcQmO0TDhiwe0y9Ik3MOF15AsQjaksPHph/WeLN+Dc9qbF9iq1GTdqwYLdiCuXsvc49O6H6htxbNPsv51aujbbAcbSw7vVv0S8VQXhgXiIYQTKoPsa7zriJ9TtWAYCyPWecX7ZV5X67rJKXXlAIa4aYoYjosdNB8EzdkJxYkE8xG8wosmNT597CLxr/ZCu6VLlmCreIFRuk1/q20coXAiSLeA+/vGP6xmoF1xwgf775Cc/qbbddtvianXmzp2rDjjgAHXNNdeoBx98UF100UX6aMM1doHg79xzz1X77bdfcaX7CRngHMPcbeSKk2YNcQjSTRWGeJ18EF4mxnyExpYRzi4N7uxQzgm3SalHV9TEIL+hnQ9cYvVv6tWOi3L4iL3HoWvkE0+aDed4Nm2a/beD+KH7EY8b8pNjbd2RGE4MfB2DscWw1Q/CA89P/7gu5wcIog3xBqNdAVe86z5xldLuMZE0++3BM0xdUWYIxWOLs5BoGjHwh0s/rXyngvktwn1i2W4HIZlsAcd4t//8z//Ui/nSbbrPPvuoU089tbhanTvuuEN71lZaaSW9SPDuu++urrzyyuJqH5x/8Ytf1Ds/TJ48Wa9H9/zz6d1KnSRkgHMMczeRI5oMzRpiH6RHN2aqMKTLkG5EG84Jj4mxEIgNnwhhmQ13708D4aaeUuvRlw6EPGIh75aPUP37BHeI2Hscuka90g3K0Z2wYVPHvx3EGt2ljHlLWVsuCYy2z+tRVcSJYWsN/d6kxg+Rnc4txFzj3w1HxB3Qbr4Fcw22uPK1O960U1YcKOiqiCSf+AnG0yiDeddComn+3MHvFN9/LBBcx48OH2U/RAaIaqsdcrx8gib5W/4f//iHuvXWW/XnnXbaSZ1++unqjDPO0F2ojz32mA5vhmeffVYtv7z5laTUcsstp8NsUu4x4KGjD5k/xul1mpChd70NvUIVb1odhtjGiJ+Qh8wnTBAHJ2x0wgDRwDnhVdqI53wihGU2Yph6Sq1HXzrsohDC590KEar/VGFdVkexeqVcZTNZq7RLWyjrKspFDFvr6RdzVtegrx19GJHkux9vmhaAlpBnIV5XPJXhEz9awA/+oabTMu9aUDQV75B5p5gAwZRvN691iTjiQRy6uD9EfO0gZJMs4A4++GC16KKLFmcLWHjhhfW1ZvHNpcDTZpNyjwHPIAMA+VtqqaWK0M4RMvQ+g9ULVPGm1W2IfeLHJiRMQqKhahv54isTP+Z6Tj360gmVkbyzJ2sZsfoPxU13c04dca2Zd7/Z51tGWVdRFXrZsGG8y7oVu5HU9jIiKeV+BB4L8SKeQt2YLiFvq34HBts+jclLzHtrv1OMp0vtus2F9vZ5MhGN7fgh0qvvXxMkC7gnn3xSTxxwwcPFtWbBm/b007ik+3jmmWfUsssuW5z1kXJPu8ELlDoODIPjGuCc55uh7nRCxj0UDnUb4phIqioMfW1UhVg9gLlepR5tYqK4zAsIiLxQGUNx092c+x43W6/NPt8SyrqKhhPGeNvdinV6dlrJ+CWKDxFscZXavogrRMuO5yg1yrd3eMP8Im4a34Wl3lbtQfNg8sJztqctFF9IfOp2a5KQJxPR2ErxxjtG9zWTQ3rx/WuCZAE3Y0bY0zF9eoL7uYQNNthAT0544okn1KxZs9TFF188aIsuzn/6059qT9ztt9+uJk6cqJZZJjw+qdVgpHLHgdk0+3wqrUgnJhxi1GmIQyKH8V+5wpC6qCJwQ8+V1YO5XrUeDZQxJIrLvIAQE3mxuG0oc+77Faq3VlJ7mjGvx3CDpS5c412XZ6eVYOB9+43iNbPF1aTP9ZUF7w5dhM44Wi+2uPr0WUV8BXze6f8pddgTA72t5MfnRUp513i+zHsbFJ+NcuaKHTevIRGY6uGsAnnwef2gF96/JkleB+6zn/2s2nzzzdVXv9pQuRbnn3++uu6669Qvf+kfsJ3D7373O90dy4zUvfbaSx111FHqnHMav14a7Lvvvlq4HXjggXq5Ebpuf/zjH2sPYBkp66lUASOAsXLB0CFOymj2+VRy0sGo0TWJ8UcgISRCQijn3lZA+ggFuxsV8VNFvFWJx/ccsOvC0ZOP1rNNfRMZzHVDq+o81O42CDPEdFXIT2gtvNB7XLW+m6FlaWJAMBIYKYwjBrWV3oZuhDrA++GlIQwQFN1KSHgwCWjHhsAyogqRYAtUPGpjF2kIh1f7PHgz31TKWiRbi6uUbkP7/dHxvN6Ix9o1hHQQfyYfOe+a734ItRVCFeGXgq9OaOvGD7hB5MSbS0w4arr8/YuQoluSBRyb2O+44456huj666+vw4gcbxl7o7773WldPp2gVQKOX/J4HFxSjWKzz6eSmk4nDGuz5AiaEDGhgwgJxRl7jgkGPJObv9j9PkEYax9fe7rgreQrIJY3O08Tx03U978x6w3v7g42ofe4an0309Y5P2K6ilyj3QliRrSVxruOusF75Plu1BgRptPwlM8uW5W8eEWQB7x1eOpy8MVNefAk/u38IsAlQ+wE29wRcalCtiqx9oM63782/1usVcAZbrjhBnX//X0VssYaa2ivXLcjHri0dLrdyDVjwGOEBK4hJJJizzHQ/+bdby7O0vAJLpM2sIacD7d97HpCZDHRh0V7y/CV05enVELvTZX6jtVNyjvQrh9LtRIywqkGsV0GJ2ZEdzqvNWk2WzeGMg8OAoD685avSe9OqffIgiVQcgjFTdcwS4v4yBE7sTY3ddaOHxyxOqxTPNb1vmWQoluSx8AZNttsM3XQQQfpv14Qb60EAYERseGc8BSafT6V1HQw+D584RhUBB+GkSPnrcQYcAQmhpgj53WkixiMgWhAEIFd7tAMaEgRTC6k4Qolk7ZJ3wd1YdrArScW4Z0xZ4b2CPKHqEK0+NaJIy1Eot2evjylEHuPc+rbEKubFEJpluWloyC+XO8M54SXYQyONm4NQ8uRc8LrBkPtA89Rq4x3M3Vjg8DAEIcwQsRHyuSHGFoYtohQ3CHxBtRFKqE6MSIwNg6vTkLtx7tXp7iq632rmWwBJyyAX/54AIxR5JjqEYBmn08lNZ1UI+eKhDrFVIhmDXgMn8B1QcS65Q6tP1eVmIAOXTOQJ8TXETcfEawn2puy0p6xvNvtWZauj7JJJKn1bROrmxR8acZEZlcQMsIphr+dBsdnRDlnw/VW0Uzd2GDgMfSxHQson2/SApMfmhHEIRHkYk9+SCUUd6icuWI71OY5IrAOTPshHBu2TR/x+tLlXKd4rOt9q5nsLtRepFVdqEMNI1BsAYCRc40xHhqMvAvCMNSVh2jAWIaMuov7rC89qNoF5sbPzgnMyAylgyjJEWwTx05Ut3z2luKsj1B9mPBQ2tQrhK6nQD2dvMnJg9o3RpV0fe+Lj5Qy1929H6r/riXUPZTS1RXs4mqy2y8EQgZxiEEzoqdOA+oS6yJc/0t9a7Dl5KWsi4xlKnwzHfFkm+8FRBCiNZSWW0cs9Dv1F4OFtg3CcYez8+vyqkOU+tuPGh+sd4DyMAbOTdMuZxl2GYwHkokcuW3e7velWZr5t1iRloyB60U6LeCqGI5OGZuUdFPGExFPihj04Xs2RI4BN8TyBjkix4cRS3Y5Q2myDtuvH/n1oI3nDeae/3vy/yp1yxqqiLFU0cd9UOU9TX1Pct+nK+5+Vp32fw+r516brpZdfLzeuN63fRbxtu3fWa7RKhMVMTpgcNqKr25CpNZZrH3KBssb7FmjNqG2RFDZYhNRlys+Xbx10/g3+qG9lNru9Hg5Db57oOr7aBOqi9x42kkH8lyrgGMXBt+YHx4n/I033ihCuo9OCrhcwwNVnmklrpGbPme6V0zYYqoZj0noWZdQnZQZ5bK82c/zbud2lbK3qtmey5BaJhvyg2fwyn9cGRVQZZh6Ck2CCOHWRyj/tnCvQll7GVLvQ7wdcdl9avrsBeN9xo8ZNWgDe+Jr27+zqgYgxdj66BYjWTX/KRD35fs2jFBkXJehWeEaGyzv4kurnYI65p1kUeGy+ve9O3gCqWffd2FuGXr1x0Ur32UP4oEr6KSAqyJkcgRGq70GPiM3esRoLWzs5SNcw9fMrL/Qs0AdxMqdYpRz8hbLSxnk1eSxSjz37XlfJeFnQ1fuER8+Qn/OEXC08YkbnzigfkN5qTLjFtz32HRjN/tebzTlj+rZ1yzjU/CexcfrjeyNd+61JY9VI8fGf4jURieMVpsNziB8QqBuEZnqGQPqumod+MpShkkPYuvkscF+ne0Uq5OU+s8Rq5rMbvl2d+/3KCm6pfIkhpdeekk99dRT/X+CH4yRj1A4xJ4xAgVDiiDgyDnhrQAD63p/6O5bePTC2tAheji6XguWr/ARCrcJ3YMYwbAisjj6jLsvv5wTbkAc+PCFh+5NwW6bKvHwXEy8IZzGj2p8IUeYOXemPtrlT2GRsYsMqF/ygufVx1uz3sp+/7jffY9Z484+r/pe023qg3DjnUPgjRjjNxaxf5uVwTj7CIXXAUYacdiuGYEuiBJX8HBOeF0geFJBlFy2T6M+JvaJFERZKtQdwgdRhtAITQawIb0rD1Dqiv2LAA+MI0MYasHUEDU6jw2xx5i7nPzZxOqE+qcOiB8h5auH3HeScYChuHyE8pfalqRBWjlpDlGyBdxvfvMbteqqq6oVV1xRbbrppmqFFVZQ2267bXFVcMkRC4bYMyGBcvJfTtYeEjw9HKsYPh8hY8ZCrraYAjv9We6GyQWxpTcMoXtSno2JXwOeHbxyNpwT7uK7NwcjHn3xaE8mxiBAzGOGaMbrdcfn7+hfHsSHST9XlLzOivAFRmyFxuAh6NmNIefd873HLibvuTDmzQfheN5M1+r82XgCBlNFbJfSrNHqRdohWvFWefcZDVF4fqoIJVsQ0xWZsp0W34OBha61Nwx8Xj0mTCDsyvLmEzPUiYnbS6MO9ISMQjC66eS+k7oLOxCXjcmrFqvO9x75Nd7KGMThCt6UehqiZAu4Y445Ru9Dutpqq+l9S//whz+ojTbaqLgquOSIBUPsmZAhZr2vOrwXLikC1Bh4O/3pc/1eEFsYhAjdk/JsSn7xLOExjHkQDb578XzlQJu58eBNRJBSX7m47w9xI6JDYpD0c0WJfX+K2GKcYM67lyooc4UnMGGBMW82nBNue+dmvryNmj9voBEu+7dZGZ9RTTVavUq7RKs7CgjvWOrSG6lCyQUxx+zQKkt8GPDoMYMzBMKOPWa1QJuo1PGNtGzvYUjMAHGneAnB9YqWCsAIIQ/rgLwCbVZ8X+HVTO1Wb4dXt4fIFnBjxoxRSy65pJo3b57+Y2Hfe+65p7gquOSIBUPsmVRDXNV74cK4JBfXyKUYeENK/kP3pDwbE782RvTEumMN5l5mZELubFCTbzvNhccsHNyCqgzeBXA9rrF687VjCLe+ckVUyruX0paAyDVikKNbZh9MVGDCAmPeMBEczQQG2zs354111Yznd1LzZjUEecOepPzbrIzbBZdjtHqVdohWDLf77wiP0NgJRV0n4AoAxIbr1fJB27HeWGo6NjzD82ViFoFpRI+ZrGGEGuIuJGaIGy9hqhCzvaLmXU0VgC4+D6tPePGPjnrI6d5vh1e3h8gWcIsvvrh666231CabbKL22GMP9fWvf12NHj26uCr4yBELhtAzPoESoszwlhlEzpkB6cKyFnYZUg28T0j5SBVhPshXSPwaUoWADfcYL6ML3jRmnvoI5buKZwkoD7geT84RaaF6Y3JAiJGN/4z3jvXu3PZNFVs2ZeXztbEPPHuUjX1gfWUOtR1ijQkLT0z5pD6a2aeudw4RN++po9QJk65N/rdZGYxUJ8eklZEqXGLYcWC0WSZDC5wWidaYQc/xJJl4yL/PqxWri1g6unvXMbN8VxgRm5NHG8SQb106MGUxQiwFdxwbz2bOvu+HuNz6irVTDu3y6vYI2QLuyiuvVOPHj1ff//731cc//nG18sorq9/+9rfFVaHV+ARKqEsvZnhtQWIbRAylETeMa/J51lwxEEqHfMWEVAhfGVOfBe4LCeZQuctEXMjLSN5C3rTYjgRVRJERY768cE67hOotJqjIJ3UBCCZEu10fqWLLpqx85MnN626r76bz4kLZLnnkEm+Zc73MMe9cT2ALpKoiywfx5AoXF18cLBqLSMkVranljBl0I2D6PWR9P1K8MJmAdBgXF/JqhXDTMZ4rztf9Av/A+s77sYSRebaZrlgXu06IPyVu3zi2qqKIuNx3J9ZOOfgEL+dGEA8zKi0j8sILL6g77rhDd29ssMEG6t3vzjdG7aSTy4i0AyNKbAOHwQ2JB+5HnOWub2bA4CKODL70DRhmBIAvH50AcYpocyGfiL0QCFojcmyoCwhds+vJhjrLWdaDuEiDfPryD7H0QuUO7TDh1kdOfmPvXhmheg4RK3PPgwFEOOClwND5Vu7HeBkvi30vBi1VLAHiRQsvB0QIwiuFOuIAyo0A8JXTLVPZvXYdItLY/sqdYIWXDDMYHdLQ+HdeZYmL0A4OiCq6X23c9p71dtjLBsTBzPCyeiJeZsL6yofYNF2zNsTNrhJu3eZgt3tOm5bh1lPuu94jtGQZkf/93/9VG264obrsssvUpZdeqiZPnqx+9CO27BA6hc+bERNviK2q4g1c7wrp0O3m856keriahfhTukVDnqiyLr+QR4nw2LUQ1Bldrz4IN22JF5PZqkbUhMQbxNLzedE4D70Hbn2QX/Lkw85v7N1LIVQG37sFsTKnvhMdB4PkepuMwbO9WWyN5BpTzhkL5d7LOXGkgjH0EQr3UUccgHH2lZNFe12PHIYbEaC9Xw2RxdEWb3a9IIYGzY5vPEOXZtl41JCniDTctrMJCTBfOHlG8CAUyzxKiB8EVqjsNpwz4cK+j/1Cj3u9US0BO2DyZ8ePqMuZ8Wu3O3mgO914Jzly7uY1BbueOFaJY4iQLeBOO+00dffdd6sLLrhA/eQnP1F33nmnOuWUFm5aLCSBwQx1G9rkTDjwgdFHDNhgGOl2C4kB0ptyx5TiLI0c48s1RCLiBqETE41VxBaEBBDhsWsxWGDX9xzhpi3Hjx4f3GbLxk7PV3e8Dz6RHxJlvvoIldPOb+zdSyGUxmdW+4w3PFTHOe9ER3FFhhFfvgHqXPeBsfUJHoRQKiGBEgr3UUccEBJ8vm4+CBl0nxAcRCO+2W8XnwMglnyCKtR2rojLxcQ7SOQ1RBTYQi1UduKwheVTt/eFu8Tahvqz48djyDZhKV2yYMdNfvAeG28fR87dunLz7V4XBpAt4JZbbjm9rZaBz8svj0IXeoEyT5MPvB+20QdbICDOykQhMzdTjWeu8Q2NCfONjwoJhJAQMIQEEOGxazHc5/BkLTS6IYhuPqJfeMXai/vd9HLrLqc+qpYzh1AaR08+OivtnHeio4S8TSHPTQ45ni8ECkLFJiRcQtQRB6QIvhSBmuv58xHyakGo7ex8hcROTAT54gXqBa+ZEWohsXPVIX2L9drC8m/nDzw3QjPWNr76I11m+JbhtntKXZGfVgjiIUz2GLgvfvGL6r777lOf/vSn9Rg4JjXQpcq6cHDIIY2Xp8sYimPgMMgYIww83hIMboohRRhg1F0QaXg53H03Mea2oTQCwTWOKWB08dCUEcpj6HmEpOlitMHQ+8ZHVa27VuKrV+p+3Khxeo0/H776CNUdXbEz5szwti346qMb6ymV3HeiY2B8PfkMgxfGuh9DObrx5xN8iA+MfQgMIwYUQ404qGsjdTvOqnFguH0iZgCNusAzFAJRo8VABajXkHAD8hjbHsvki/vc8Wd02dKlacdt11vsfaDrk+d8dUSe6Zakqz3lnTLvR2icXuj9ib6zjbL72j34TFFXlCe0r23ZezxEackYOGad7rDDDv2r4iPklllmGfXmm2/qP6H1GGOf6mWxwQj7PC4nbXxSkpcDg15FvEHMm2QTui8U7uvug1A45amry68ufPXKufl35sNXH6E6wgPqi590ffXRzDvWDeS+Ex0DY+cDDw0G2YbzD+3VZ9C0oWwcERmMhfLdG/OuGAFgezuqzhitG9KlXGVddW7dUSbbI4UgdeslBdItE29l22OZfCDK1vviwDbziTe7LWKYrcAQOz6P1p0XND4kiDcwHrbc9yf0zlK20LsTfKYRbsrvE29g8ikMotIs1F5jqHngcj1ULj7PCqR4W0KejRRS85dbPpY+YR9NF5alQJR2Al8dx4RizGPE3rA+L5yvPkJ1FyLkkWr2HUvBrqOJ4yYqvorYoi2lvsowAtQWra43uSswxsv1pCAgINWbRTw597bC2xEriy8vZXmOedDwYo1bVOmdDHg2NEMXj5TtVZzGeMGSMW+mDkL5C3ms+sEvYo0HjtUBNOMpbAa7rXPfn5x2htgzOt1I+Zt5J3uYFN2SLOAOPvhgvfbbpz71Ka9XgD1Su5VOC7hcY15GavdQaro5xi5k2BmP9ebsN4MTGcq662xyjW87xEYOVcRDqAyhrm0DZbTr0Jd2jFAdtboLsiyfdYgt0qjz313LyDGezeIzpC6Ms6pCSIj4DHCKCIh11TEbcsCMUmyS51437ZTyE9dO54bzF+w6jRATIdEuyUxCy4K4lAmuMnLfWe5nYo4Rvng58fzxTKz8zeazh6lVwDHbdP3111c33XRTETIQNrbvVjop4KoY8zJSBEtOujkCKBYv+Iwy4o6Zine/dPcgT1koTznGNyY22P6q3UY8tT7tMuJlmzZnmndBYOqIZVpYqNcXr12HxHnyX04OjpuzCdU9xAQlXxl2Xea0lSEUv01IXEKVNHuWXGMZo8zbgwA4NuZdihA0xIUgsssQWuPMFjqhvKaKFE0jbXecXH99BuqBPEBIjMbqL4gnH4Y6PXArNuzwM3c4ArWR9oofVeqVxxvptOFHgotPNNvCLNbObAc2DMUb1CrgDG+//bbeiWHkyL7hc3PnzlUzZ85UCy+8sD7vRjop4HLEUSoYr5D3gngxZhi31HRzvS2u8WQLJ8QF56GuMJ4JLQTbTF1AqI5jA/dbaexT6tPXhqz3NrdhmHzPIpwYpxhqV6C8b816K2nZEeD+wzc83FsXsXfMYIRl2cQXH6E6som9f6EfEUNOxJUZv1xxl+LtqdsDh7fFXXA2iCV0QmVPiqcg5vmK1S1jzbz11MgfY9yiXagecvNRFdLhHahL8NdB6L0wdVL2jg9TUnRL9iSGLbbYQk2bNq04a7zH06erLbfcsjgTXBA1PkLhKWCkMFYIHxeMO8YtZOR96SK0fBCOsUQgYXA5cm4zbfY0ddmjl+n0MMgMlp85d6b2fCHKjEFFeIRw81SWpgsiEQNuwzlC0hUgnMfyUgex+jSQBzdvCK+QqKFrGgEcaleg7lPFG3A/74qvfu13DCGFgHQh/1W3uArVkU3oHl/dpaTZk2CIXcPOOeHG8Gnj2HhvOHJOeAgMegyMalUQChjeATQED2InVZzY+cN4Y8R1nhrxcOw/T4SxcSFC8RMeqifC6frLWdCWOqFuQph84HHy0R/eyGMZRighjDo9GcWAkPRhwmPtIETJFnAzZsxQiyyySHGm9Gdb0AkDSTHmVcDAIpB8Ig5j5jO44Es3JIDwrBkxiLDgeMytx6ijbzm6P4yuOrfbz2dMY4LVzhNiwk0zJDIMrtjgyDleQB/NiOcUQvVJuKHVeUiFtgotsmzeMbxgIUd96k4OLr46snHryyYUd7fUaa3EjF9M3IXwiqyCMqFRxgBDDAiOEm+fjS994nTFSEgo+mACAyBq8QThgeRoRK4vfvClYfLHPakL2qaKEa6HdkUgHK8o3dBG5ITEHpSJ+HYTE8OGUDsIUbIF3IQJE9Rdd91VnPWNjaNLVfCTYsxjlHmjQkYLw5qarhFAdKkZWH/s/578v0GeDsRaipfHzVdMsCIUDWXeFV998Md10iQdykiZQmnG8tIsJi/k2YhoIyjJkyGUB9rAbbc68Al9A564TS7eJOrxzK2zsvtd0U25fQsT+6ijXX3vUVcSM35lng0fGEZbZBkhgBhhPTm6Dm2Bk4sxxDr+EvFGmkaQpAodGFCG4tlQWtQFZcn1VPrSsPPHsXRB28ZzOWKkTOgQjxE5jA0bJGILfCKesvoEbDuIiWGhKbLHwP31r39Vu+++u1p22WX1+fPPP69++ctf6gkO3Uonx8BBSGCUwXN4n2xBg3G3jRvGBy+VC0aQdFLT9aXVDKRvj2uLxW+XCYPq60bEsNMt68YxZuQY7R2yRaWJD8rqz1C1jWxS2ssQuxeOvOXIoHcrBzv9jS/auPLkhpz3I1TmusipZx/NPt9WjPiwPW0YP8QERtp0mdkgNjD0qcTSSBUfLmVj7ZqN3wVREqqLlAkTVWA9thhjGgJvTuMdY8IFQnn9Lym13enFRQ9XHTJ4Ed5YPdFuqYsJ19m+xKffvYY4Rlwar2SMKs8Mc1oyiQFmz56tHn74YW043//+96sxY8YUV7qTTgu4GBiTkHCIiTMjjuoyRqG0qhBKn7yGhIkpU6zMkJpHE1+sfg2trkNXzBpieQutbVcGgnbh0Qt711PDy4a3LQVfnmPt55ud2kpS2jVEbjt1nJDxq8swx8RPVYETihOIt1kD7tZJbB04tpHyYomcXLTYCsULeN89P8A+9BW/iPO1Jflj4eb3Tg6Ln5S2q7N963rnYoTe92FGywTcbbfdpp588kk1Z84CrwdbbHUr3eqBKxMOMW+UPTvPjd+eFZpq3EJppYJomD5neml6ZWWK1Ql7hKbm0a0jG7e+yLdP2OQa9NT2SiFHbBnIb5W69xHKc51ldAn9O6mbVpah7dRh7GLLf1QVODFBEvNCpRASEe6ivdSFrpuAkISqYvL4JRpVFvCQ0zU8o1Fvvut44nzLtIRElm8Gry2YUgRVavumvEutEPs2KeUZJqToluwxcF/4whfUN7/5TXXLLbfo7lT+utW71Q0YQcIvfowGR86NsbKFCnBOOGDEfLjhGDmEBsYHo8eyDr70+MP7gAHjiJfHnIe2bGJcEsKgDJYPIX3yETO6oTKRV/ICiDXSxKByNII29KyP0L2+9ggJJYREDqntlUIV8Va17n3klqVKGW1i/07qplVl6AgYNQwnhphjFSOHsfYRCk+BfCCoEAn9NEQEXjKMdDMgMgYIwwacI97cukCMxECMIBh8ecLLdnxDQNFVimD77rKNzw0xxE4MseENhz0Rvh5avy6UT98MXs6pA6CMiBsEFHXN0RU7Ke1rhJMWZ412CtVLKJ9l9ZxKqG1NeYUBZAs4xNqtt96qzj77bPXDH/5Q//3gB40XRvASE2khgWDCEWN4n2w4JzxEKD0Wd3UNJF105tzXLUZaLMCLMEDIxUgVO74yGcgLs1zBCFJblPiepcuQ9dNsYnXkq58QuQa9SntVoWoavvzBKGdGWyy+ustoflSwREro30nd1F2GngOjjCfFDGj37RnKOR4YG/c517i71x+4vBHoeH5SjHFZOjkiIkWEkid2CbDT/Mn2fV2kRnDx/ai34GqUJ7YGnJn9H5olGgrPFct2WRFrMRFPO5a1L+VPEU6hfLI2Xh20WiAOMbIF3JprrqleeCHPMzGciYm0Mk8AwiXkjQoRSo/B6ynChbFMvrTKBr+nih27TD6Y5Rpb1sKtjxM2OkGduPGJA8JidZQqNKsYdF/+YnmJERLMhLN4rpnhypFzNw3X28q5L39TNpmivrvxd5PzXGcZba9biNT2yqHOMvQciCHX04JXDG9ZzIvje8720Piuh4ROzBiXpQMpHiWDT7z4IK92mk/4dxwqhZm8wIQFH6HwkMgKLVWSI/jKvHTUbWpbkU/2oXWZ9dbANqpKTtsK+WPgNttsM3XPPfeoDTfcUI0bN64Ilb1QQ2A8fQYKo4FAwIDZwgrh0IwxCaWXCgbNNw5orZ+sVXwaTFmeMdTG44jQo9zcG4vzvj3vKz7VS6h+xo8ar9sBb6Shymb4obLmQjyst2fPrsXTuPNqO5fufGCEUZ3vVStIeVf5d4IXVqgJvEtaqDggFFgWA4ONscRQ2wIu9BxiAK9P6LoP84yPsnTAiDzbY4TYcUWngfvxJFE2fvgkb8NVhYZAMuPK6IK984K+9FJmodr5NG0AOWWtQqztfG0V2syfMuKp9L0/ZfSXnXzQ7W7JkrrL2yO0ZBKD7IWaR8iY2ntb4kWhC9OIOtfI5oiCUHoLjV4oaVxVyGCGBtUj+FjeIzc/lD82y7JVAs6Xn9gWVpPfPVmdt815xVmcUFmrCidfu3Me+kFg2i32o8FuW1/87RR4ockEhm4UnQPwGdxWGxnb0GmD2RAHGNnUtOkijNR5P67RDD5XCJaq8brE4tmp8e/QPFe17nnOFUR1EhOnVWn1e5Za54aUts4RXd42KURczrs9xGiJgOtFOingwDWUzBJN3T+yiijwGWZw43Ex8YLv+SNvPlLNs6bGj2z8d9ImJw3Ih5t2aIanEa0+6Ca85bO3FGf1k5pHQ2zPUJtU4dQMKTMoU+5Jea9871FZHeQQ88CFfsx0DT6j02pPQUx8pKZd1VNW1QNX5tlzieWvrvp1BVFonbgYRjzb5IqWdov/ELG2Y0KGS+o7VCZm++sgEFcrxHAPUauA23jjjfXM00UXXXTAjEUe5/yNN/zbFnUDnRZwLjmGvk5RgEEObSgPjIcCn2HHY8aep/a2WUwgYAyabfDLRGIK5KOdhrvMEwRlohlShFOzpLwPddwTassq3cohUkRk11ImaFpBmeFMSTsmAgdhdQf6nrMFS9n1VMry14r6DeV9uQ2VerLxQ1J3gY7sG982e1ojD4Xggrq8gHWJ0yrk5qesjfqx3h+XpDgizw8DUnRL8iQGxBu8+eabWqyZP3MupINHw4cvPHQvxhcDWBcYbowmHhfXaHPOpuXunqecc7/B92wIMwjfBW+Xa7wpJ4IDgcSxznID3qUyKJddVh+heAivUgbfM3ilEDk2nBsvKYTuwfNr4vOJNzDvW6gt6fauq/5pZ8Qa7x4il2NPiDfAaPsIhddBWdwpaWOQMcyh2ZA2iBKDeQ4BhWHlaBv4suupmHhCpHh+cgnlfc/f9K3Zxj6kx76q1FHP9QkKBCTP8MdnOywFRJ8rXDgnPBeEEMKebk2OnOcSKn+oPO79oXfJfn9cfHXgEnte0GR1oc6bN0+tvfba6v77a/4F1GKGogfOhudSupticRmvV8iLFCKl684FMYFHL6UbGbHQai8Nabjdwz7KPGmhvKaW1SZWbkBgxbo2ed6+x9dt78O8g7G29L2nw45e9cAZUsYx0YW2xo6DF8dNFSrNECxrQzCwqTt5QKxU8YB1mmDdN8qW43HyebE64cmrko+y96+THskuoVYPHIwcOVJNmjRJPfXUU0WIUIUUL4rBd68Logxjby/MyxEjbhPy5oERACEvUshjZt8fetYsBmx7WeiG4+iGu0LE5wnivMwblgNpMpZvzIj4lnCh8hmIx1cmJqvkliFWbtJBQCEmObp1BoTx7pBn2h0Pqhufi/0Oxsoae4+6Gf49xP59ZIFYwMjYcG661lqBL01Dbtop3g3GhbEWmhZSDWPLEUOd6uXhvqreIV2WhqAZRCMfiDYjGmJ586XvC4uRe38Kobr3hcfSr9OT1wyILNsjV+bBg9j7l/K8oMmexLD55pvr3RdYRmTChAlFqCwjkovrIcFw2obYvr7Y2MWSNiF3cT02Ie8bQsN4VEjX9fyEMPGbfPuede/JJeQJKvOG5eDW9ay5s9T0uQO/GJspR5Uy5Dzje5cgtR2J030HiTM0XtJ+X3qFVryb2pi22wPUn2ZDsFSZhWogHtdr0ngPol4RQ4qnLxZ/an6Dm8UjEhr1rcWbg8mbL/1RYxvJN9IfMBSkEVdoey9fHKmeof528rwbqfGW3Yeo87ZXo0zdPnasmbodJqTolmwBJ8uItB6fsakK3q+Zc2cG4/IZMSMIYl23oZmZPjFR2UA2CHX71iUiQobdLPNCOdgmjH8mvg3iUygrg6/OQvXvljuU/3GjxiWJ/lg9+jbUb1r0dIhWv0c9iSsyfILIS4JAwFsUi4/FYMctqtT0VwcLHCBvl+/bJ1BdEGnkOSZeytJ3obt421MG5iEUR5mAvYqN7n/U+GDlzxUnbt37BG1ovTWTftX8dQspdTCMqVXAzZgxQ51zzjnqH//4h1prrbXUV77yFTV69MAtjLqVXhNwIWNTNxivmBiJ5aNuwxcSfiGBUpeISBFXKemH8m+uheKAkIBMGTdXx7sSew9i5apK1TibyUs7PLk9T6roSREIQe9QAFvg+LwzBnOf8UK6mLzlpg+uyKri4dLi7fzixCFHWFEHl321OHEp0me7L9+OER/6SnzBYKEnSNEtyWPg9txzTx0Z4u2aa65Rhx56aHFFqBOMVMwgY2zrAMOFAcQghsYEYShDxK7lQrqIGMqNkeXIOeEYaEQL5SbPHOsSbxAqhwmnfmwRBZwTbojlH+wyAOMJTRxsG+aLH+9fSrlz28E3ltHNrw3pIWRj4+1yKKurEFWfMyD4fITChyV4QBAxMbjOfWXgUckBsYYoA44+8QZs+YXA8uXVzltu+mDnAUJxhMIRXdrzFkB7DROx8+FC+qT1xJ+KAAcmnaRCPAh33xg7oetJFnAPPvig+vnPf67+8z//U1166aXq5ptvLq4IdWGMVAiMOEaUXQqYNWobd9bnwkNjw/nCoxcuzgbCWK8ygxgzbnUavjKRVLeIsCkz7GUCD1JEHnlGMNMmZgFj6jy0gDDxp5Q7px3YceKkjU/S74uLm99WkVJXNryP/LhodrN7U/c2nBM+7AgZbYQRHig8RY3vFX3Em2Of2x6qGCli0MUInJjQMeLEl1c7b1XSBzvtMpHookVXxOvHjydbIMXEU6wOSD+WFs/G4jYQhqdTezIbcXHk3Hev0JUkC7gxYxbM0OuVrtNew2fcDK6xcY37ukuvq7fLMphNzxmQ78ICvCy+XGYQSQ+j78LzdRq+FJEExpiHPIZVKDPsZQIPUvMfa1+XVGHmy3+IRcYuot+b1Py2gpy0zQ8ahG6I1DxT7lZ6cnuGMqONANJdkI0fFhzpirPPU8QbDBBY0BBZZRjPVsx7ZgsbN6923gakXwi8FGyR5YuDc/CJo5joAsbzmboua4dQHTBWj3zF0hrT+NEei9vg83TaXkjuLxOBddCudIYgyQJu6tSparHFFtN/7MZw77339n/mKIRJFR4xY4Q4O+LmI7zPG0Nne3OYuHDtE9cO2AzdgFfu9Zn+Ae52HjBuJ258ot7o3YDx22nVnWo1fCkiyTbmVbrQQpQZ9jKBByn5h1Sx4cYfw5f/ELwfvD/Un4/xrDTfYlLrClIEbyg+H9RVmUdzyFNmtOukX2A1vmtYu80IIUQIM0JtbM+WPgYE3/glig8J9KdfCLwUEWeLLHDjgJA4iglPg6nrsnbwef8MZWnNacST0sYhEUiZmEBxxf7+ctYJ8YXqs92QZo8JyWQBN3fu3AG7L8yZM0d2YkggR3jEjBHGN/S8z9BxHpqFaGZT+vCF2wafzwyub1Y42aSIpFAZbY+hD/JZJp5jht0nkFzPTUr+IVTnvnXycsSFm/+YiOP9CTFtzjQ987SV+OoKyJfbPmWC11fHQglBo13iPWoWWwixv+anz1og6Ixni3vMvSzt4WPWW9UNa0wU2fjEjiEmvIif2bVlUNdl7UAdUCeIXRtmpSJwVt26CPAQ2GN6UJoxEUg6zs47upxMrCgTN1xDALIMDH98Dt0fq892Qv66RUhmkCzghGrkCI+QcXNxn0/17BgQEqmio6pwyiFFJIXKGCs7YqAOr50rkFxxlZJ/oG7pfrbh/IgPHxGNP5fU98gHC/62EruuXNz2if2gCdWxUELIaKd4j+rE9WwZ8Wag69YVL8CQkBQR4cOIIls4higTWC6EEz9Lo5TSEAiBhdEHtAPxjV2w1mo/CBzGAvrqB1K3tkoVtC4xcUPYlQcMXP6Ez3jzfPfn1nOr6BYhmYkIuBaTIzx8QiCE/XzI0PkmMBiR5kvLZxCrCKcqkG5MxITKGDPy7RCfhrL8G9xVezKXYUyCtFPfIxczwaKVmLry5ctun9CPDCbwxOpYiOAz2nb3ZTfBGnEhfCKCz2VdYK5wDIm4XKFrwmN5tvGtb+drh5jAYd06X1uu/6XB4Y3vgUFeuwGCNpOQuCHMM+5ae/N89+fWc6voFiGZiQi4FpMrPFwhEDK+9vM+Q4dnxzeBgYkNxvC5afkMYhXh1ApCxpzwEO0Sn6kgTNwxiZy3Q1DmiLhcD2VVytqHMqT8yBA8hMSMzwtld192E2VG3BYRlK9KF1iuoC27v7LwaLSFWSLFJiZwQm2J95K4COunUSdTfzG4PogjJmRj+MRNTPD4ruXWf6uI1XMXIwKuxVQRHjYpz/sMHd433wQG1hfLodn810UVY15VfCJgysbNVaFZQdlMvnztGKJKN3MVUtqH9i37kSE4lIkZY7RD3Zfdgs+4uxhRgJCr0gUWEkGhOim7PyRISmm0050XDBZYZQKHdH1tqZdbcbz7sfrwpcNEk1A3LfjETUzw+K6V1We7KKvnLiV7K61epNM7MWAM8bJgqDFOGFNjiGLXDPY9qds6YeTtyQcGxA/GEFLShrL7UuNJoe64ECN2NyoiJib8qjyTCqLLN4mAbclu3v3m4sxPHfly6/Z9i75P3f7C7cXVgSCQEUxQZ5vYtLKuhzV43LR4c8A4YuRtEAwYdYQQBhaD1W7jGaM/f57ygCkTnkbP950WBYibduKr02sOGzguLASiwRUwVdqoSn2E0iGcHwC2QCafePkQivb9wBg4t/eHsb87nN1d75ZLlXpuIbVupdXLdOtWWrkGrOx+29CyzptvPJMxzHUZzzqNsC8uYJHioycfXZzlYddJivjY+KKNvbN3bUFTFfJyzK3HqNnO7C7W2mO5lli+Nrl4E++iv83mq0zo19m+PnLbR0gg1XiHDHOuB6Qdhs+XV8BDxFgwnX6iaG0X/fUSEJ8h6shzjohPwW1jxtPRJet7d8AWrKaNulm8dSEi4Aq6VcCFPDIhoxy7H8PnEz82tuHNSTtmZOuKB0JxAQPXW23YyR8r/vuwPZdlhMoZiz8mxOrKl4+y9stpXyhrY6HFYGhjm8DbxrsOI+8TVlVEYAqk5fNkGW9QSFB0Qjj46iWZGryGrW6XugWiMIgU3SJj4DoIRs5HlXCMpk+8sfelb8xYahoYZIQhRty3FEdd8UAoLqB8MYgHsdHMuLVYGojflPhD5WR9NY4hqpYdT2uVshoQWJTNhnPCIbV9IVT2ZvLXFBgxDE1sVuJQwhhtn3gDdxYi3hQfoXAfeGVckcI54XWD8Igtq4E4QUAggDh2SryBr15SwcPVLJS7lfVRx7sjNI0IuA6Ch8JHlfCQocXB6hsAHooLw0s3ojG6PmHIuREVqXktiwdCcQFiICScUoQDn8sEWExETZ87PUmYhMrJ+mpuuE2s7LF80U3ejEjinUDYI/B9Qj+1fSGljduGETPaSzC/78h5u0RcJ8RjmWgw+4gaQkIhR0C025D7vD5AOOIE7487oL8TVC0/XjKEdh3vTivro453R2gaEXAdpMz74eK7HxAUeGJ8hAxwKC5gDNjRtxytRUGZByYUz0eX+2jxqY+yeCBUbkNIOJUJB+4vE3gQE1EuIWESKmdsfbVYm0NZvpoVSYg1BL5P6PvaN5TflDZuG+30DLl0SjyWiQZz3YhLnxhi5qEZjJ5CyGCz5VUrBGxokVoTbspmp+sLS6Hqc1AqZIrva8aH6ZmehZfMdAXX+e40U44QvCOITRvOc94doWlEwHWQMu+Hi32/i08gxISBiYsuVh8sQcK4q5AwXGxs3/63xMPaci7udlspnhziYsJCDJ9YKRMOZQLP4IrOMnzphsoZqmew1+bz4RNRLq0SSfY7V/aOprRx22i3Z8imU+KxbJ9QRAXGu19cesgdEu0z5IjAmW9WFyExwRHqHiZ8QNmKdNkBgFmRuXnxxXXZPo08TUwTQdRLaFstBBt7w7JHLNuK8We8ZHhJfe8OY/+qiDBfOXLaIgTevG7qsh6miIDrMBjCkPfDh7nfJ+IgNObNB9fK5rCEPEfsm2kEmm9tOQTSkbcc2X9PqieH2aZMWAiVD1yxUiYcygSeIXeNPF+6oXJ+ZrXPBEVY2d6ytFNIuBvqEknkw+1qNu9c2Tua2sZtoZNdPJ0UjyGMd6SsmzW0Yn4I15AjTuY24vDto5kSb5ng0Ol4INxXNvLhLmmRkhdvPRXflSkiiHoJbavFOL6Q0Am9I0zcqCLCfOVIbYsyKEMrumgpVxWxOgwRAdejhERJaMxbiKqGn6UwjAcrlBd7fJYtQsoEphEMIcHi5rlMOITK6IaHyuEjJExC5USYcvR54lK6QE2dIG5bJZJop5Su5hA5bdxyOtnF0ynxGNvGyXhHUkQkAiHFeBpDi2cK2IB+DmIh8KMwJe0ywRFr1xyBXHZv2XVXBPlER6g9fHGb50N15xITYXZetOjzkFNXdeKrJxvOYwJeGIAsI9Kj4B3BwLpgNDH0qWCcfWuTpYCRRiyG8mLIzZPBCAq7+xOxgigARA+iCyFG9yceNHOOoDHCIRaPLS5C5UB04UELxZ9D2bprKVAeu+xV8+JS1zvVNfClj5HDWCGeMPJ1eQliGCNkCxFERqu7mDCIPoONdwoPCYTuCUF36KfPGpxvXxkb73BUgNj5MLhtFMxbI26ztEaoXXPK5suLzSkrDl6uxMdO5/Ud3bqg3ubNaVSHpwfDpN1fDvJcUnderDoxeNvFQ1n5W4Evb+6/i5R3eJgg68AVDEUBlypKUiCuKXdM8S4UG8MYdl9ebHLEiYtPrEBu2VNET511GqKbRVId4lIoCImMVpJiIFMNvA3doozTsskVgj4B681LQMikGPCrDlHqbz9qfLCeZxwa43jtbtQyMU2+fLsJ+CCu0Y2/FLEHJm1IFVqz3vbH76uTlHYpK3+rSBFneOa8QtYjVoc4sg7cEAZBgbDA8DfbXcUzbOV03573ebvo2CmAzfFtuMeIKZOX0EB9BFNViBthY3cLI8Rcscg54SF88biYctRRpyGoM7d+7brMAcGJICxbmy6VUDs1037DFowjRqnu8UExSAPDjEHE4HF0DbV7jz0LMoRPPOR0wTFD1CcYELiDBAzG281L49xdw84F0cXszQHGv/Hcel/s8yDG6sSFfKWINyD/qeLNrgdv2V0a+eXdYRcDRJcN5/wocIm2S2L5W0Uob3Z4aJhBKHyYIx64IUqKxymE71lwvXQTx05UR3z4iP542+HBghxPUTP10CrqyFMr6rpd7WfTje0zbGGGZQhmTNoEPT0NkWD/24x5e4LeFsiIB+rseovmqxkaZTJepJQ07LwjUFM8unXWQ92k5M3nle2Ux7DDiAdumGIMMV11VQej+7xVb89+Wx8N9npxwH11erCI1+dhwtD7cMObrYdWEarfHBA9uV7IMupuvzLa0j4YBAxHaNC0sADtifPgC0dA+LxCTGTAICNWOMYMb8irotd0c8QNBh0BEyLFu5NKNF8eqB+3LnzY8ZZ5lIjP9rBRh4icMo9uqF183roQrfo3k5I3ysU7k/oODXPEAzcEaXacFQbU9Ypw7osTUuPNwRh3nzcIQtdssdFsPXQzQ2G8WsvbR37N50F9sW6aPaGJoRM7nO2vL8ac3XlBQ2vN7RM3639Jqe1OLy4mEGqfYNei5cEyEIf2TPm8gQ1s704qoXzF9lsF3z6tBve986VB+fg3TZ4RNVXf0f46sbx1kOLBC5W9rn8zvrzVEe8QJEW3iIAbgjRj3EPCyfX2uGB06+z+KjPuPpHpph2qB2Cs390v3a23uGK5EzPTlOU+eoGhIE5bLkJTumyEgaQa2LoMvS89fZ7Qbr482ITyk1LG0D2xZ0PvG+J2x3Oq5aMOfPUUqptQGfAysn5dq/Mq9CMCrkA8cH2kGPfQswic2HZQUOd4qTqMe6gsMKrxpTrXs6o7O0H0goiLeShb1eVZNy0XocFxRh5PTg4+wwvtMMbQLsMfo0wcN5PHVMERygP4vFjE6/OS1eVhatX75pJbtzFhyXe6HUfK2Dyoq86EICm6pSvGwL3yyitqq622Uquuuqo+vvrq4AUQn376abXZZpupD3zgA2qNNdZQZ55ZfaxPL4LBxuAhbDhyHgJvFMbchnPCy8Cj5aNMvAFiopkxWDap49xi+OrB4BNvgEeuKjlt1CyINMQaYqcd49VaQTPvaRIYJh+h8BSMuNAGsWHoOFbdrqkKvvRblZYP0okJJ8JT8mji8Y2zQhQgDhBhiB+OPrEQygPPuOPETJ58XZwIRQRRs7TifXNJqVsXhJ4P/R3oxJGa17rqTGiKrhBwU6ZMUVtssYV69NFH9ZFzl9GjR6vvfe976qGHHlK33367Ouuss9SDDz5YXB3aGG8L3gq8Uhw5DwmEZox7jkDyERKAudRh3E095JAiVH3ktlEdUD48Vc1MhugkzbynPqjrAQJ63R37PAU2nONtqApGy+2yq7pdUxV86bfLmA4QDwHw6pTlMUWEIL4QYaFB+/pexox58IkQX55sQiInB96rut83oKxG7F6+b377p4gyE4evDCHqqDOhKbpCwF155ZVqzz331J85XnHFFfqzzTLLLKPWW289/XnRRRfVnrhnn31Wnw918Gq5Y9DKvF1VjXvMa2XA0PLnwycABxnWBFFTl3Hn/lBefYTWsiujShsJ9YlQr4B+5lp19UZfbRiwEk9ODjlGqxUGLhRnO4xpmQgCvDplefTFUyZCXPS9DfE3iEY7+wRTWf3w797nDcyB9yrFc5iDK3YDPQfR8qWKMuLwlSE0O7lOz6JQia4QcC+++KIWaMDxpZde0p9DPPnkk+ruu+9WH/7wh4uQoU3Iq1WXt8vGFk4hSDfVQ+Y1rJZnKibu6jLuvrwyBs4HExmq0M42EgYTFND/+kvck5NLjtFqhYELxZmalu3NyRUrZSIIMPhleQzFkxK/IXhvQ+T42risfnzdiVUg7dD7Rpxs0cV6e/zxuSydFNEMsfK5oizw3dcfh1uGnIWEhbbSNgG35ZZbqjXXXHPQH963HN566y218847q+9///tqscUWK0IHc+655+pBgPy9/PLLRWhvUsd4sByMcBo/yv+rbbGxiw0QejEPWciwsihwmbirC19ev7vxd/WEBeNx4zj53ZP1fqdVxrC1u406QUxsd5q2CWifN4OlNtj70qZVBi6UPtstlYkywsu6LmOUiSBTZl8e7foIxVMWv00wDkSKB1+ewOdxz/UGpkAdM07SHoPHZ8ZPxuo/VdTS/rF4bFHGjNhY+7i4ApBjs55FoRa6Yhbq6quvrm688UbtfXv++efVxz72MfXwww8XVxcwe/Zstd1226ltttlGHXLIIUVoOb0+C9UIHVsI4VGq0qWYCmkefvPhxdlAFh+3uN56KwWMPeLMBzs5sBiwCwILAVkF8o1oxHAjnvC+pdRRs3XciTZqJ11ZPgwWhrZh5LZ+73Lq+VEN4+LQzLsUxEpXCwlj+NywVhk4O/3xSzSM91v+vT7BzlPOnpo+SBfBN8AjRJ03/n0Th11m7rVnfNINhyeH6754TJ5T66xKHHa9mTa6bJ/GBd/3U6NciJ26QFhr4ewhVv+h5xCe7njdnDr01UVq3QttIUW3dIWA+9a3vqWWXHJJdfjhh+sJDMxKPfXUU4urfZBNxse94x3v0N63HHpdwEFVYVIVPCx4xHzgxapjKY8QOfHbNCMyQvnMEQDtbqN2Ukf91IpjwK+esLA67p1LqhkjF4i4oSSgg4QMPIJpTqNuBoitEBliJdXw+wQWXsqxizRE3at9whP4XFVA9OelUX69JMbcPjGUE1eo/lJEbY4Iwjsa+CEbrX9fPSLUQhvop4pxoevpGQH373//W+26667qqaeeUu9973vVJZdcooXac889p/bee2/1u9/9Tt1yyy1qk002UWuttZYaObLP7X3SSSepT3ziE/pzjKEg4NpNzHOWK2pCnrwQVUVBMyIjVN6qYnKo0XX14zG8iLgzGz8EXxg1Ml9A5xjjbiIqDBJphdGPeZwMuV43HyGBk+OJqvJ87nOx+iirf9+7GfQcFuQKWaHrSNEtbRsDFwPv2x/+8Ae9jAhHxBssu+yyWrzBxhtvrL1w9957r7rnnnv0X4p4E6oRG7uFYawDumLxkthwXjX+ZsZBhcobq4fhRNfVD8bM4ZNvT1PXPfVM/qQXY4y1gW0YRY6cE97tYNCbAdGBoY9BPSBAciY+eNpnEIgfhAlUSQN43hZRYMdbBgIH0YXgwRPGMUX85aZLHbvjJIHxi2X1T14QeGZSAedl7d5L77BQma4QcEL3gYhyxRUw8N82jHjY8Hz5BrabLk0fxH34hofrLi48ZGZyQTNdXs2IDF95mxGTQ42uq5+QAasiaJoVAZ0E448Is+E8tPSDTYpYQQC44vayr5bPoExtB4SeL41U8RESiikC0uATSGUE023k3Zdv4vz0WQPbhc+hfWbL8LW7S6+8w0JlRMAJXhBRrrhi/1B7mykj0Oi29M0i9c1ABWZ8GqHGH96SbK+Jh2ZEhq+8zYjJoUbX1U9IuJR5M3zUIQI6CeOhDIgCRJlv6YcBjBgoVhAdPg+YT9wC469iIitFYABCrxkBHRKKDPJPEYBViQnUUL1Q17SL8faxt2hViIt2LqNX3mGhEiLghCAYZ0TVyZucrM+PuPmIAV620BIhhEOo65Ku8FYY/mZFhikvYhLRRzl8nsXhil0/zYrtpjEGLLfry0fIGKd6kToFIgGxYA9mZ+ICmPopW/MLTDw+D1hMAMRElts+CEu6C22M4G5GQIeEIhMaYgKzWVbduvjgIVQvsXquAnWs6zdCt7/DQlPIZvZCFONl883sRNDFBrZvcvEm6rWZg2dXIawQAN1KrMwdFS1CazCG1fYCIQqqCsJ2QTdm2UzElLLhcdOiwsGIA9+1fhrirNkZrLH0TTls3HgQU3de0CfaXEJxNEsoz/146iW3nCn42tfQC++wEKRnJjEI3UvMyxYaW8ZCvyHxNqbxKzzWpYl4Co2paxdlnkVhiIGBs71FHLvd8GG4feINbM9VStliHrCyrtAcDw9pIlTcsWa+NDgn3MUIFi2ECi/W1F/4xRuEytYsZfH66iVWz1UZ0L4NjMe1F95hoWlEwAlRYjM7fWPORo8YrabNmeYVb7Dw6IWDXizj+QqNqWsXzcxmFXqUkLgIgZDAo5I7a7IuYuPDXPEQKxv59u1GAMTDvQgB76SIhiBEQDVbfpNGTGQaKLfrbeI8pau4TmLxhsRn6Jlm89jfvq8rdWxD1HNMeYeFnkcEnBAlNrMTIeaOOVtk7CJq9rzZxV2DeWPWG8WnwXSL56uZ2ayGbvAkCi3C5wXivJ0iLua18YkHH6YcPu+VLUIQAoc9odRO5/WJK01DaJnhE3WUv1+ElAjoULl1GciTRUhI1QHxul5DMJNIfPn3PdPKPApDHhFwQpSymZ3uwPaQ580QE0Gt8nzliinKRlevTVnXrw3xd4MnUWgRIS9QzCtWNyGvDQLCFQ8IK5+30FcOwJvlEyFGZGkR54x9bWX57fyHvIW2oNQ0zid9LiwEm4V4Xa8hAhehG0rT90xI7AlCAiLghCg+L1toMH+ZQLGFn486PF8u5OnoW44eIKY4L8urO7cnZ66PjKHrIkLipRnqHMtUNX8hbw7LVNgQX8hbGPRmzYuLCh2Xh1B4M7j59451c8UbNM4fDUyUqlrnLtRRitfQpsozghBABJxQiutl84k3iAkUNq4vm8VZ5u2rwsl/OVnNmT+nOOuDc8JDUA7fM6kCTMbQdQkx8dIMOWOZYmIhN392XHi78DCVeXNi3sKqY7JC481C4c0Q8xKacg8SbwU+gZpb54LQxYiAE2ojJlBu+ewtUfEGXE/19qXy+qzXi08DCYVDswKsFZ5EoQIx8dIMqWOZfGLB3sUgJ3++uJh9SZoxb07MW5hSDtJ1BWhoxmco3MYXX4yYl9CUW4s4Dz4h2qp3QhA6gAg4oTZCAgUhlgpiLcXb10qaFWCt8CQKFYiJl2ZAKKWMZfKJBTC7GGgx5sGXv6rCI+ZlKyuHTzRy7p2R2iAkpAyh+GIiLsVLmCqoIVjngfBuJ1cQC0MKEXBCbXSbcImNc8PDF6LZcrTCkyhUIMX4VwWRUzaWKSYUEV85S19UFaNl4iZWjpBonNG4192YPSSYbKqI0BRxRp5TBHVM3KR2/3aLYCJdPLl4dHMEsTCkkJ0YhFpBNDFWjO5GPFaInk4IF/Lh7qbgct+e9xWfBtMt5RASwWghBBA0CCBj4DFotmjA+PuMeyvAwJd5dshPSv5CcSFWEF4xfHWTUn5ECsLAB7O0xy2q1PRX0+MMxtcQXQjIEFXz71LWHqyfFoN8dPJ9MvjyYZPyTghdT4puEQEnDElYLoQZpyHwitFFKwwBYoYV6jD+VUgxtORH568hLPACMY7MhNv57IR4KBM8uUKhGRFaBzFBGsoD9W7eH5Yw8Y3zs5+172/V+1b6w6BEEAs9gWylJQxbYhMOZDxa58CzWfsCxxhMVyRxTjjGE+Ma6+psFaSFwPKNGUN8GePOkXMjDjDOiDXEgMHEhViIdROmQLyIgLJuQPLldpXaIFJyMOW0MfXQDhBUXhr16csD9UI7aLHUEH6hSRqmHtz7fe1YB2X1HiynMNQQAScMSUITDkY2fkXLeLTOYLq1a1/gOGTQcgVGCqnix4DAGrCLgUd8xQSoDffbYhRy8gLcc8X+A0UG56FnYx00eKRS0jTUKUKr4BOQ5ONDe/nz4GsXH0YwpbZjs8QEWjsFsdBxRMAJQ5LQRISTNj5JxFuHYExhSxY4Dhm0uj0RiJWqHhZXfNmCoYoArZqXaw5Tyt3qjnPCXRAekW3xtEcq18MUq4c6IU+uuCUtV0DudK5S253e94yLrtsSbMHUrh8SXiHaILaNlzAkEQEnDEkQaTITtHVU6Qptdn29ID6DZgyrz5BXpVUelioCNJSXy/eNl5UlTHz4wlOER9Xy19kuLsQVErchAenLT3RmqseD2K4fEl4hWrKNlzAkkUkMgiBkYbpCbW8a3s0ygRyaWFLLhBIMLkIC0YHBNF4RDLctdBB2Vb0UGHcEwSAaRhRBUBUjOHLyGcyLhS+O4yYWHzy4szARMileKA1ColHvq27dt4WV3Q5uGaqUN4dQvhE6iDaXUH7scxffjNVWl0sYVsgkBkEYYlTxfNVN1a7QULd2LRNKMJCuZyXXY4YBdr0wNiFPyvgl4s+VQV4x8rZHxWf07fwFN3W38JU1tAivLzzUVeel8HT97fxCPDmeL5vcdskltyszlJ/gOn20k4fUdhSEmhABJwg9gvF81T4JIJOqXaFt79bOMeSIDMRGTHz4BA3roc16K/5cChh5X9eewc1faEaki1tWNrt3Z5aOLISKK0BdQYLIi81K9eETZrkCK5eQ0A6Fh9Kljt325tx4d32UtaOBOm5G9AtCAxFwgtAjtGwSQCbNbDWGWGvbVmk5hjzFK+QKGo4sZjt3Vt91g0+0NIsvf6C9RI28BL1FTlkpw6fPWlAG7XlrmAE9Bs4jQG1Bwhgr+9lUXIGUK7By8QntmPAKpUudUuembil3HR41V4xXFf3CsEcEnCD0CC2bBJBJS7tC6yTHkKd6hWxBw5GdCHzU5U0yBL1ExabuO56TXla7DGMnDJ5pGhOg9rNayCXgCqRcgZULeczpyvTlB4yX03jiuC8URw4pPxYEIQERcILQIzTj+aqTtneFViXHkMe8QrHurthzdVKWTq5oMaQKVx8h4WPjE2ZV85oDcdlCOxa3mx+fN7MOgWXeI+1581C36BeGPDILVRB6hKqzP4UETLeW7RlBfEz6nFJTf+EP17MtMcYNo09XmIFxYmMXydsn1IX8IBgw6sTB7E5fPpoVPiFBgZhB+JThy6eZhcrkDmimHjoBQt1uz34a7YwgrILv/XJJrXNhWJCiW0TACUIPgYhjzBvdpnje6LYU8VYTrhhBcOhzn8fEEW3mnDFlM98c2C2ZK7SuOkSpv/2o8cGKf4BotPLXrCAKCddmhWEd8frao1UCkLRYzDi0Th7QtowDrELM8wZ11LkwpBABVyACThCGIXUIgKA3xoPugmvQrEfrsq8WJw6t8tC0QijV4dlrhbD0QVpXHjB4MorLmAlKHfVccZJJ7D2iTlopToWeJEW3yBg4QRCGHkYAaBHRMJwcOSc8BwRNKggg/nzY4eQBgeMbU+fb0soQirtZEA6IqpTxYqmk1EMMBKXb3cg54XVh2gHBXCbeYPbb+e+PIfQeGUEr4k2ogAg4QRCGHnUJADwjeH4GQHepB4x00FAX4QiAmLCMduE1uWBwOymrhzKaFYBlDGiHDKoKSN97xDnhglAREXCCIAw9mhEAGHcjlDDYjD3DU4Jw4/ihvcLGuMxQNyMsGVvXrEexXTQrWJoVgGX42iGFqgISDxvdv/Z7JGPehCYRAScIwtCjqgAY4JkphBKzPxEepotxu9PDxrjMUJcJS9+WVoac9do6TbOCpVkBWEZVIdaMgKTsdXdVC8MamcQgCMLQwwgx28uCACgTEXjefN1qCBCMbrOUxU++r9h/oFhjuy5XvPXTEEfu0hbEgbBDpCA4ED11iYVWxu3SyrRC7WAYUyxwbI+NS3l/BKEmZBKDIAgdgeVOOrrpPka2igco5Jmp6rFxKfMskb8dzh6Y7/5zD65HyAhX24NYV1drK+P2QV0ganc6t+/8sn3qG/sXaoedzmsI4tf7Zpva24alvj+C0EbEAycIQq309ILDrfbAAQIk17NkxFOZR7FK/lPz0466cSFvPo8korZZMVWlHQShTaToFhFwgiDUCh63599+vjhbAFtusYF9Dm1fuDhVKHWCFMERXG/M09UKOeXNjbsZ+svqEYzQzKK6gtADSBeqIAhtp65N940nDzE4v/EfR85b2h2LaEG8mK4zhMLohqCps/uuKuQNT1dsELzbpWoIhSOSbPEGnBPuEooDUVdn3RhRGRJvEFtuRRCGCSLgBEGolbo23cfzZnfDAueEtxQjlBh7NachZrRYaIgUBEUrx3zVQWhsF+E+QmP7fOG+uA111o1PVAqCMAgRcIIg1ArdnIx5s+Gc8Bzq8uRVJsc71S24HkSOse7fHI/dgLg91FU3IVFpE1tuRRCGCSLgBEGoFcaoMWGBMW8jGv9xrDKBoS5PXmVyvFPdhPEgpqw3Vuaxw6NG96jZ/QFC3jwoqxs3Pp/HLthVWzBqrFLbnlKcCMLwRQScIAi1g1hjwsK9e96rj1UmHtTlyatMjneqV4l57BBX/WPRii5kZoSy8XuIWN344vN1u8a6akeMUmrdL8RFaTtJEaSC0CJEwAmC0JXU5cmrTJl3qldxRQf4PHa+LmR3cVsbUzchUZPSJc295j7EmqYhLA3z5/btjNENQok8pAhSQWgRsoyIIAhCCCMo6BrEu4RA6RbvT4hYno3osIUUwss3Tg4BhjBJhUVwIRQ/M3m98RXLkPjypsWb5xk8hYjNToI41eLNoRvyJvQ8soyIIAhCMyBqfN6pbsWIoJBXKMULZsjpKka0UDex+EPxmXDfsyEB2Q3jEEN56Ia8CcMCEXCCIAxtEC++Lr2hSJlAyxEdvi5kdkFgEoGN3a0ci98XX8qzPnxisN3tXCZIBaHFiIATBGHoghGPeaR6lasOUer4dzTEysS+I+dQJtByRAceNXeCA1tYxfYIjcXviy/lWd2NamGLPkMn2rlMkApCi5ExcIIgDF06OU4J8YDnC/GEOMGwG7HSDIi1v51fnFh86CtKPXpdvLxG6NheOkSHLaSaoZn4Q89O+lxRrkg9dqqdW9XGwrAnRbeIgBMEYegSHIg/om9cW6topVDC48ZsTBdmbe54Tnm6rRYdzcRf9dlOtXMIEXZCk4iAKxABJwjDlE55ZlqZLt2mIY57PV88pN7fzaKkk55WF+qplV5OYViQoltkDJwgCEMXRAbG04ZzwlsJIsdHKDyH/vXRHEw4IgHRkjJz1ogNLX4av+U5ck64Tep9naJT7ewDkWuLN+CccEGoERFwgiAMXRAveD7wxPgGzrcKPFQ+QuE5rP+l4oODG464wjMVm5WZKja6XZR0qp19tFK8C4KFCDhBEIY2GPFUj1RdtNIjtN3pSk9YMB43jpwTbkj1mKWKjV4QJZ1oZx+tFO+CYCECThCE3ibF09RuEA/NeITKyoRYO/aVxvXX+46c289cvm+axyxVbAwnUdLs+9RN3bnCkEYEnCAIvQvGtVvHZlX1CFUpk/uMb5YquB6zVLExXERJHe9Ts+JdEBIRAScIQu/S7WOzqlClTL5nfLges1SxkSNKEDvNeLA6SV3vE/XSDd25wpBGlhERBKF3QSTgKRlEQ2RgPOsGMYIxx5OFGMIDVbdxrlKm4DMWeMxa7QkyHixbBLUj3bpo9/skCAFkGRFBEIY27RybZcRJM91rKVQpU+ianuhQ4jGrk7o8WJ2ine+TIDSJCDhBEHqXdo7Napc4qVKm0DPszNDObrxemK0ao53vkyA0iQg4QRB6F0RJ6tisZmmXOKlaptGW8Bj/jvZ43Fx63YPVzvdJEJpExsAJgiCkwIB83X3qgJHHw9UpumncWa+PgROELkHGwAmCINRFt3avdcu4M8SbyYtZZFg8WILQMkTACYIgpNCt3WvBrt2n659gEcJ43oyHknXojLgV8SYILUEEnCAIQiqIkVas74UAqrp2Wmx8WStmyfroFi+gIAwjRMAJgiB0kgHeqwrLk/i6dg3tElG9PvtUEHoQEXCCIAidpFnvlenaDdEOESXrpwlC2xEBJwiC0Enq8F4h4vTYPA/tEFHdOsFDEIYwIuAEQRA6SV3eq06KKOMF7LYJHoIwhBEBJwiC0EnqEl6dFlGk04oJHoIgeJGFfAVBEDoNExYY80a3KZ43xJsIIEEYtvTMQr6vvPKK2mqrrdSqq66qj6+++mpxZTBz585V6667rtpuu+2KEEEQhB5HvFeCIGTSFQJuypQpaosttlCPPvqoPnIe4swzz1Qf+MAHijNBEARBEIThR1cIuCuvvFLtueee+jPHK664Qn92eeaZZ9TVV1+t9t577yJEEARBEARh+NEVAu7FF19UyyyzjP7M8aWXXtKfXQ4++GB16qmnqpEjy7N97rnn6j5k/l5++eUiVBAEQRAEofdpm4Dbcsst1ZprrjnoD+9bCldddZVaeuml1frrr1+ExNlnn330AED+llpqqSJUEARBEASh92mbgPv973+v7r///kF/n/70p9W73vUu9fzzz+v7OCLUXG699Vb1m9/8Rq2wwgpq9913V3/84x/V5z//+eKqIAiCUBlmwVbdi1UQhI7QFV2o22+/vfrJT36iP3NE1LmcfPLJegzck08+qS6++GK1+eabq5///OfFVUEQhExEtPRBuZvZi1UQhI7QFQLu8MMPV9dff71eRoQj5/Dcc8+pT3ziE/qzIAhCbYhoWUCze7EKgtARZCFfQRCGH3jctHhzYPcC1mGrA8RgLyzOiwcSETuIEX3r0gmC0HZ6ZiFfQRCEtlLHBvIxesnDV9derIIgtBURcIIgDD9aLVp6qVuyrr1YBUFoKyLgBEEYfrRatLTaw1cndOt2chN8QRAqIQJOEIThR6tFS691S1Ju2YtVEHoKEXCCIHQHjA9r57IerRQt0i0pCEKLEQEnCELn6aVB/ykgBqVbUhCEFiLLiAiC0HnasayHIAhCjyDLiAiC0Bv00qB/QRCELkAEnCAInafXBv0LgiB0GBFwgiB0Hhn0LwiCkIUIOEEQOo8M+hcEQchCJjEIgiAIgiB0ETKJQRAEQRAEYQgiAk4QBEEQBKHHEAEnCIIgCILQY4iAEwRBEARB6DFEwAmCIAiCIPQYIuAEQRAEQRB6DBFwgiAIgiAIPYYIOEEQBEEQhB5DBJwgCIIgCEKPIQJOEARBEAShxxABJwiCIAiC0GOIgBMEQRAEQegxhsVm9ksttZR63/veV5z1Dv/617/UO9/5zuJM6GWkLYcW0p5DC2nPocVQaM9//vOf6uWXXy7O/AwLAderfOhDH1J/+9vfijOhl5G2HFpIew4tpD2HFsOlPaULVRAEQRAEoccQAScIgiAIgtBjjDquQfFZ6ELWX3/94pPQ60hbDi2kPYcW0p5Di+HQnjIGThAEQRAEoceQLlRBEARBEIQeQwScIAiCIAhCjyECrot45ZVX1FZbbaVWXXVVfXz11VeLK4OZO3euWnfdddV2221XhAjdREpbPv3002qzzTZTH/jAB9Qaa6yhzjzzzOKK0C1ce+21avXVV1errLKKmjJlShG6AEagfO1rX9PX1157bXXXXXcVV4RupKw9L7zwQt2O/H3kIx9RU6dOLa4I3UZZWxr++te/qlGjRqlLL720CBk6iIDrIngJt9hiC/Xoo4/qY+ylxNhj+IXuJKUtR48erb73ve+phx56SN1+++3qrLPOUg8++GBxVeg0/Eg64IAD1DXXXKPb5aKLLhrUPlyjjfk799xz1X777VdcEbqNlPZcccUV1U033aTuvfdedcwxx6h99tmnuCJ0EyltCdx32GGHqW222aYIGVqIgOsirrzySrXnnnvqzxyvuOIK/dnlmWeeUVdffbXae++9ixCh20hpy2WWWUatt956+vOiiy6qBfmzzz6rz4XOc8cdd+hf9yuttJIaO3as2n333XW72nD+xS9+UY0YMUJNnjxZvfbaa+r5558vrgrdREp74nVbYokl9Gfak+9aoftIaUv44Q9/qHbeeWe19NJLFyFDCxFwXcSLL76ojTpwfOmll/Rnl4MPPlideuqpauRIab5uJbUtDU8++aS6++671Yc//OEiROg0iOnll1++OFNqueWWGySwU+4RuoPctjr//PPVtttuW5wJ3URKW3J++eWXq3333bcIGXqIAmgzW265pVpzzTUH/fl+Pfi46qqr9K8JWbOo8zTbloa33npL/0r8/ve/rxZbbLEiVOg0vhWW8LTZpNwjdAc5bXXDDTdoAXfKKacUIUI3kdKWODpoP8a/DVVEwLWZ3//+9+r+++8f9PfpT39avetd7+rvfuHoc/veeuut6je/+Y1aYYUVtNv4j3/8o/r85z9fXBXaSbNtCbNnz9bibY899lA77bRTESp0A/yqZ6KJge60ZZddtjjrI+UeoTtIbSvGvzE8hR9iSy65ZBEqdBMpbcleqNhIbCUTGPbff//gsKReRQRcF7H99turn/zkJ/ozR4SAy8knn6xfVrrcLr74YrX55purn//858VVoVtIaUt+RX7lK1/RY98OOeSQIlToFjbYYAM9OeGJJ55Qs2bN0v/eaFcbzn/605/qtmQiysSJE/u7zoXuIqU9n3rqKf1D6mc/+5labbXVilCh20hpS65hJ/nbZZdd1Nlnn6122GGH4urQQARcF3H44Yer66+/Xi89wZFzeO6559QnPvEJ/VnoDVLaEm8qhgIv6jrrrKP/fve73+lrQudhlvD//M//6BlsiOxdd91VL/dyzjnn6D+gLRlIzYDqr371q9pICN1JSnt+5zvfUf/+97+1t4Z/jx/60Id0uNBdpLTlcEC20hIEQRAEQegxxAMnCIIgCILQY4iAEwRBEARB6DFEwAmCIAiCIPQYIuAEQRAEQRB6DBFwgiAIgiAIPYYIOEEQWgaroLMcAztUfOYzn1HTpk0rrgyEPSirwGKdX/va14qzfBZZZJHi00BeeOEFvQjoyiuvrD74wQ/q5UIeeeSR4mpvcuONN6rbbrutOBvI3//+d/Uf//Efaty4ceq///u/i1BBELoZEXCCILSM8ePHq3vuuUfvUMGm0+4aTXPnztXHkLAog3W6fvCDHxRn9cDKSjvuuKP62Mc+ph577DH14IMPqpNOOknvb9vLxATcO97xDl2P3/zmN4sQQRC6HRFwgiC0hU022UT94x//0EJis802U5/73OfUWmutpa8ZTxjXEE6snP7+979fbzFmlqr861//qj11kyZNUhtuuKF688039f3bbbedvn7cccepL3zhC3p3EhZQPu+883Q4e81uscUWar311tPple1Vyz6YY8aMGbAJNl5E8k9evvWtb2mPInH98pe/1NfJx6abbqoXFGUFfxZuvvDCC3U+uQ8hCF/60pd0vMTFfextDDNmzFBf/vKX9b3rrruuzgNccMEFemeAj3/847pM3/72t3U4XHfdddprRrnwblJOYOugY489tr+8eNdYjR7xfMYZZ+iy3HzzzfpeA1u9sbo95RYEoTcQAScIQsuZM2eOuuaaa7SggDvuuEN997vf1d4tl7vvvltv7M+1xx9/XO9YwXY5u+22mzrzzDPV1KlT9T60ePdc2Mfy6quvVn/+85/1qvrsfLHQQgupyy+/XN11111aGB166KH9otAH3sL111+/OBvIZZddpj2KJg+IObPnLWHk77777tM7bNDlSjnZV/OHP/yhvgcQUzfddJPOJ2IO8XbWWWfpazx70UUXqT333FOHA+khFLnGkT0g//Wvf6kTTzxR54Fy4Yk8/fTT9f3wzne+U4fvt99+uksUUUda3/jGN3R8CEhBEHobEXCCILSM6dOn929J9N73vlfv/Qp4plZccUX92YVrbFY9cuRI/SyC5+GHH9Z7jOIlgsUWW0xvp+PCnrMIOwQMXj4EFGLtyCOPVGuvvbbacsst1bPPPlu5O/SWW25Rn/3sZ/XYvne9613a64ZnEMgbeWQcGWPntt56ax2OaKUMBrx0lA2PGttw4SEjXryHgOfxfe97X/+YO7yH7LGKEGU83j//+U+97yoCd6ONNtJ1xH67hBvw2gFC1E5bEIShgwg4QRBahhkDxx9eKMbBwYQJE/TRBwLIgFDCe4cIGzFiRBEaxr2Hc7oyX375ZXXnnXfqfCC8jHfLB3sqcq+PmOfOzjcCzZzzmTIYfHlMjdeuj6222qq/bhFz559/fnHXgmfM/YIgDD1EwAmC0PXglaI71Hi7GP/mEyaMb0OcsSE549Lwir3++ut6jBfju+hCtT1VPhhDN3PmzP4xdEC6dHt+9KMf1d2YTL5AFP7pT3/SHsMcLrnkEjVv3jw9Lo4u4tVXX13Hi9AEPG9PPfWUDg8xefJk3bXMmEJgdm/ZLNlFF11U15sgCEMDEXCCIHQ9eO4QTgcddJCexID3yedFQ0x98pOf1ALnmGOOUcsuu6yeCMFyI3TjIpIQgzHwiDFm7vrrr9ddoXjkmCBBXMxOpSuWPCD0Tj31VPXud7+7eDINhBldr9tuu62eWEDX6P77769FId2tjPVj8oLteXNZaqml9D1055IfyktXbIxPfepTuly+SQwsm0K3NePoGFvH5zfeeKO4KghCNzJifsx3LwiC0CMgspjN2s1LYTALlVmzzLIVBEFoBvHACYIgCIIg9BjigRMEQRAEQegxxAMnCIIgCILQY4iAEwRBEARB6CmU+v8BIIHOpoKuCnYAAAAASUVORK5CYII=;" vertex="1" parent="NWqYuL7iUljdfoK01-JL-13">
          <mxGeometry x="3" width="107" height="75.96" as="geometry" />
        </mxCell>
        <mxCell id="77xE9gMN34iMxN2iWLI2-7" value="K-Means Cluster" style="text;html=1;align=center;verticalAlign=middle;whiteSpace=wrap;rounded=0;" vertex="1" parent="NWqYuL7iUljdfoK01-JL-13">
          <mxGeometry x="1" y="79" width="110" height="16" as="geometry" />
        </mxCell>
        <mxCell id="NWqYuL7iUljdfoK01-JL-16" style="edgeStyle=orthogonalEdgeStyle;rounded=0;orthogonalLoop=1;jettySize=auto;html=1;entryX=0;entryY=0.75;entryDx=0;entryDy=0;exitX=0;exitY=0.5;exitDx=0;exitDy=0;" edge="1" parent="1" source="NWqYuL7iUljdfoK01-JL-14" target="NWqYuL7iUljdfoK01-JL-12">
          <mxGeometry relative="1" as="geometry">
            <Array as="points">
              <mxPoint x="236" y="23" />
              <mxPoint x="236" y="68" />
            </Array>
          </mxGeometry>
        </mxCell>
        <mxCell id="NWqYuL7iUljdfoK01-JL-14" value="Filter" style="rounded=0;whiteSpace=wrap;html=1;" vertex="1" parent="1">
          <mxGeometry x="252" y="8.5" width="108" height="29" as="geometry" />
        </mxCell>
        <mxCell id="NWqYuL7iUljdfoK01-JL-15" style="edgeStyle=orthogonalEdgeStyle;rounded=0;orthogonalLoop=1;jettySize=auto;html=1;entryX=0;entryY=0.45;entryDx=0;entryDy=0;entryPerimeter=0;" edge="1" parent="1" source="o3wgpyr-beOxrrR1u4XE-30" target="o3wgpyr-beOxrrR1u4XE-7">
          <mxGeometry relative="1" as="geometry">
            <Array as="points">
              <mxPoint x="196" y="235" />
              <mxPoint x="196" y="118" />
            </Array>
          </mxGeometry>
        </mxCell>
        <mxCell id="NWqYuL7iUljdfoK01-JL-21" value="" style="rounded=0;whiteSpace=wrap;html=1;" vertex="1" parent="1">
          <mxGeometry x="428" y="200" width="133" height="160" as="geometry" />
        </mxCell>
        <mxCell id="NWqYuL7iUljdfoK01-JL-22" value="Networking &amp;amp; Security" style="rounded=0;whiteSpace=wrap;html=1;" vertex="1" parent="1">
          <mxGeometry x="434" y="209.5" width="120" height="32" as="geometry" />
        </mxCell>
        <mxCell id="NWqYuL7iUljdfoK01-JL-23" value="&lt;div&gt;Performance &amp;amp; Resource&lt;/div&gt;" style="rounded=0;whiteSpace=wrap;html=1;" vertex="1" parent="1">
          <mxGeometry x="434" y="242" width="120" height="30" as="geometry" />
        </mxCell>
        <mxCell id="NWqYuL7iUljdfoK01-JL-24" value="UI/UX Accessibility" style="rounded=0;whiteSpace=wrap;html=1;" vertex="1" parent="1">
          <mxGeometry x="434" y="272" width="120" height="18" as="geometry" />
        </mxCell>
        <mxCell id="NWqYuL7iUljdfoK01-JL-25" value="" style="rounded=0;whiteSpace=wrap;html=1;" vertex="1" parent="1">
          <mxGeometry x="428" y="369" width="133" height="171" as="geometry" />
        </mxCell>
        <mxCell id="NWqYuL7iUljdfoK01-JL-26" value="Compability &amp;amp; Web" style="rounded=0;whiteSpace=wrap;html=1;" vertex="1" parent="1">
          <mxGeometry x="435" y="376" width="120" height="24" as="geometry" />
        </mxCell>
        <mxCell id="NWqYuL7iUljdfoK01-JL-27" value="&lt;div&gt;Privacy &amp;amp; User Data&lt;/div&gt;" style="rounded=0;whiteSpace=wrap;html=1;" vertex="1" parent="1">
          <mxGeometry x="435" y="408" width="120" height="22" as="geometry" />
        </mxCell>
        <mxCell id="CVK8r9bNoHwFEltht8IB-2" value="&lt;div&gt;Compatibility&lt;/div&gt;" style="rounded=0;whiteSpace=wrap;html=1;" vertex="1" parent="1">
          <mxGeometry x="434.25" y="119" width="120" height="17" as="geometry" />
        </mxCell>
        <mxCell id="CVK8r9bNoHwFEltht8IB-3" value="&lt;div&gt;Privacy &amp;amp; User Data&lt;/div&gt;" style="rounded=0;whiteSpace=wrap;html=1;" vertex="1" parent="1">
          <mxGeometry x="435" y="141.5" width="120" height="15" as="geometry" />
        </mxCell>
        <mxCell id="CVK8r9bNoHwFEltht8IB-4" value="&lt;div&gt;Media, Extenstions, &amp;amp; Plugins&lt;/div&gt;" style="rounded=0;whiteSpace=wrap;html=1;" vertex="1" parent="1">
          <mxGeometry x="435" y="438" width="120" height="33" as="geometry" />
        </mxCell>
        <mxCell id="CVK8r9bNoHwFEltht8IB-5" value="&lt;div&gt;Extension Conflicts&lt;/div&gt;" style="rounded=0;whiteSpace=wrap;html=1;" vertex="1" parent="1">
          <mxGeometry x="434" y="160.5" width="120" height="15.5" as="geometry" />
        </mxCell>
        <mxCell id="CVK8r9bNoHwFEltht8IB-6" value="&lt;div&gt;Installation, Updates&amp;nbsp;&lt;/div&gt;" style="rounded=0;whiteSpace=wrap;html=1;" vertex="1" parent="1">
          <mxGeometry x="435" y="470" width="120" height="30" as="geometry" />
        </mxCell>
        <mxCell id="CVK8r9bNoHwFEltht8IB-7" value="&lt;div&gt;Developer Tools &amp;amp; Debugging&lt;/div&gt;" style="rounded=0;whiteSpace=wrap;html=1;" vertex="1" parent="1">
          <mxGeometry x="435" y="503" width="120" height="33" as="geometry" />
        </mxCell>
        <mxCell id="CVK8r9bNoHwFEltht8IB-8" value="File Handelling &amp;amp; System Interaction" style="rounded=0;whiteSpace=wrap;html=1;" vertex="1" parent="1">
          <mxGeometry x="434" y="290" width="120" height="33" as="geometry" />
        </mxCell>
        <mxCell id="CVK8r9bNoHwFEltht8IB-9" value="&lt;div&gt;Session Manage-&lt;/div&gt;&lt;div&gt;ment&amp;nbsp;&lt;/div&gt;" style="rounded=0;whiteSpace=wrap;html=1;" vertex="1" parent="1">
          <mxGeometry x="434" y="323" width="120" height="33" as="geometry" />
        </mxCell>
        <mxCell id="CVK8r9bNoHwFEltht8IB-10" style="edgeStyle=orthogonalEdgeStyle;rounded=0;orthogonalLoop=1;jettySize=auto;html=1;exitX=0.5;exitY=1;exitDx=0;exitDy=0;" edge="1" parent="1" source="NWqYuL7iUljdfoK01-JL-27" target="NWqYuL7iUljdfoK01-JL-27">
          <mxGeometry relative="1" as="geometry" />
        </mxCell>
      </root>
    </mxGraphModel>
  </diagram>
</mxfile>
